<svg xmlns="http://www.w3.org/2000/svg" viewBox="0 0 1100 190" width="1100" height="190" role="img" aria-label="obsidian-vault-mcp — AN OBSIDIAN MCP THAT SURVIVES iCLOUD EVICTION">
  <defs>
    <linearGradient id="tr" x1="0" y1="0" x2="1" y2="0">
      <stop offset="0%" stop-color="#0D9488"/><stop offset="55%" stop-color="#5EEAD4"/><stop offset="100%" stop-color="#0D9488"/>
    </linearGradient>
    <linearGradient id="fd" x1="0" y1="0" x2="1" y2="0">
      <stop offset="0%" stop-color="#0D1117" stop-opacity="1"/><stop offset="10%" stop-color="#0D1117" stop-opacity="0"/>
      <stop offset="90%" stop-color="#0D1117" stop-opacity="0"/><stop offset="100%" stop-color="#0D1117" stop-opacity="1"/>
    </linearGradient>
    <radialGradient id="halo" cx="50%" cy="30%" r="60%">
      <stop offset="0%" stop-color="#0D9488" stop-opacity="0.17"/>
      <stop offset="100%" stop-color="#0D9488" stop-opacity="0"/>
    </radialGradient>
    <filter id="gl" x="-50%" y="-50%" width="200%" height="200%">
      <feGaussianBlur stdDeviation="3.5" result="b"/><feMerge><feMergeNode in="b"/><feMergeNode in="SourceGraphic"/></feMerge>
    </filter>
    <clipPath id="cp"><rect width="1100" height="190" rx="14"/></clipPath>
  </defs>
  <g clip-path="url(#cp)">
    <rect width="1100" height="190" fill="#0D1117"/>
    <rect width="1100" height="190" fill="url(#halo)"/>
    <g stroke="#0D9488" stroke-opacity="0.06" stroke-width="1"><line x1="0" y1="0" x2="0" y2="190"/><line x1="55" y1="0" x2="55" y2="190"/><line x1="110" y1="0" x2="110" y2="190"/><line x1="165" y1="0" x2="165" y2="190"/><line x1="220" y1="0" x2="220" y2="190"/><line x1="275" y1="0" x2="275" y2="190"/><line x1="330" y1="0" x2="330" y2="190"/><line x1="385" y1="0" x2="385" y2="190"/><line x1="440" y1="0" x2="440" y2="190"/><line x1="495" y1="0" x2="495" y2="190"/><line x1="550" y1="0" x2="550" y2="190"/><line x1="605" y1="0" x2="605" y2="190"/><line x1="660" y1="0" x2="660" y2="190"/><line x1="715" y1="0" x2="715" y2="190"/><line x1="770" y1="0" x2="770" y2="190"/><line x1="825" y1="0" x2="825" y2="190"/><line x1="880" y1="0" x2="880" y2="190"/><line x1="935" y1="0" x2="935" y2="190"/><line x1="990" y1="0" x2="990" y2="190"/><line x1="1045" y1="0" x2="1045" y2="190"/><line x1="1100" y1="0" x2="1100" y2="190"/></g>
    <path d="M 0.0 152.0 Q 4.6 151.8 6.9 151.4 Q 9.2 151.1 11.5 149.5 Q 13.8 148.0 16.1 143.8 Q 18.4 139.6 20.7 133.5 Q 23.0 127.4 25.3 123.4 Q 27.6 119.4 29.9 121.5 Q 32.2 123.6 34.5 129.8 Q 36.8 136.0 39.1 140.9 Q 41.4 145.8 43.7 148.3 Q 46.0 150.7 48.3 151.6 Q 50.6 152.5 52.9 150.7 Q 55.2 149.0 57.5 146.3 Q 59.8 143.6 62.1 142.0 Q 64.4 140.4 66.7 140.5 Q 69.0 140.6 71.3 142.2 Q 73.6 143.8 75.9 145.4 Q 78.2 147.0 80.5 148.3 Q 82.8 149.6 85.1 150.1 Q 87.4 150.6 89.7 150.8 Q 92.1 151.0 94.4 150.9 Q 96.7 150.8 99.0 150.8 Q 101.3 150.9 103.6 150.7 Q 105.9 150.6 108.2 150.6 Q 110.5 150.6 112.8 150.6 Q 115.1 150.6 117.4 150.8 Q 119.7 151.0 122.0 150.8 Q 124.3 150.6 126.6 150.5 Q 128.9 150.4 131.2 150.4 Q 133.5 150.4 135.8 150.5 Q 138.1 150.6 140.4 150.5 Q 142.7 150.4 145.0 150.4 Q 147.3 150.5 149.6 150.4 Q 151.9 150.4 154.2 150.2 Q 156.5 150.0 158.8 150.1 Q 161.1 150.3 163.4 149.9 Q 165.7 149.5 168.0 148.1 Q 170.3 146.7 172.6 143.2 Q 174.9 139.6 177.2 133.5 Q 179.5 127.4 181.8 122.9 Q 184.1 118.3 186.4 119.7 Q 188.7 121.1 191.0 127.0 Q 193.3 132.9 195.6 138.1 Q 197.9 143.3 200.2 146.0 Q 202.5 148.7 204.8 150.2 Q 207.1 151.6 209.4 150.1 Q 211.7 148.5 214.0 145.7 Q 216.3 143.0 218.6 141.3 Q 220.9 139.7 223.2 139.4 Q 225.5 139.1 227.8 140.6 Q 230.1 142.0 232.4 143.9 Q 234.7 145.9 237.0 147.0 Q 239.3 148.2 241.6 148.8 Q 243.9 149.4 246.2 149.7 Q 248.5 150.0 250.8 150.0 Q 253.1 150.0 255.4 150.1 Q 257.7 150.2 260.0 150.1 Q 262.3 150.1 264.6 150.0 Q 266.9 149.9 269.2 150.2 Q 271.5 150.4 273.8 150.3 Q 276.2 150.2 278.5 150.3 Q 280.8 150.4 283.1 150.4 Q 285.4 150.3 287.7 150.5 Q 290.0 150.6 292.3 150.6 Q 294.6 150.5 296.9 150.5 Q 299.2 150.5 301.5 150.4 Q 303.8 150.3 306.1 150.3 Q 308.4 150.3 310.7 150.6 Q 313.0 150.8 315.3 150.8 Q 317.6 150.7 319.9 150.4 Q 322.2 150.1 324.5 149.2 Q 326.8 148.4 329.1 145.0 Q 331.4 141.6 333.7 135.8 Q 336.0 129.9 338.3 124.8 Q 340.6 119.6 342.9 120.1 Q 345.2 120.6 347.5 126.3 Q 349.8 131.9 352.1 137.5 Q 354.4 143.1 356.7 146.3 Q 359.0 149.5 361.3 150.8 Q 363.6 152.1 365.9 151.3 Q 368.2 150.6 370.5 147.8 Q 372.8 145.0 375.1 143.0 Q 377.4 141.0 379.7 140.9 Q 382.0 140.7 384.3 141.9 Q 386.6 143.1 388.9 145.0 Q 391.2 146.8 393.5 148.1 Q 395.8 149.4 398.1 150.2 Q 400.4 151.0 402.7 151.2 Q 405.0 151.3 407.3 151.5 Q 409.6 151.6 411.9 151.8 Q 414.2 151.9 416.5 151.8 Q 418.8 151.8 421.1 151.9 Q 423.4 152.1 425.7 152.0 Q 428.0 151.9 430.3 152.0 Q 432.6 152.1 434.9 152.1 Q 437.2 152.1 439.5 152.3 Q 441.8 152.5 444.1 152.4 Q 446.4 152.3 448.7 152.5 Q 451.0 152.7 453.3 152.8 Q 455.6 152.9 457.9 152.7 Q 460.3 152.6 462.6 152.7 Q 464.9 152.8 467.2 152.7 Q 469.5 152.6 471.8 152.4 Q 474.1 152.2 476.4 152.4 Q 478.7 152.6 481.0 151.7 Q 483.3 150.8 485.6 147.9 Q 487.9 144.9 490.2 139.3 Q 492.5 133.8 494.8 128.3 Q 497.1 122.9 499.4 122.5 Q 501.7 122.0 504.0 127.0 Q 506.3 132.0 508.6 137.9 Q 510.9 143.8 513.2 147.4 Q 515.5 151.1 517.8 152.7 Q 520.1 154.3 522.4 153.8 Q 524.7 153.2 527.0 150.6 Q 529.3 148.1 531.6 145.8 Q 533.9 143.5 536.2 143.1 Q 538.5 142.7 540.8 143.6 Q 543.1 144.5 545.4 146.3 Q 547.7 148.1 550.0 149.6 Q 552.3 151.1 554.6 152.0 Q 556.9 152.9 559.2 153.2 Q 561.5 153.5 563.8 153.7 Q 566.1 154.0 568.4 154.0 Q 570.7 153.9 573.0 153.8 Q 575.3 153.7 577.6 153.9 Q 579.9 154.2 582.2 153.9 Q 584.5 153.6 586.8 153.9 Q 589.1 154.2 591.4 153.9 Q 593.7 153.7 596.0 153.9 Q 598.3 154.0 600.6 153.9 Q 602.9 153.7 605.2 153.8 Q 607.5 153.9 609.8 154.0 Q 612.1 154.2 614.4 153.9 Q 616.7 153.7 619.0 153.7 Q 621.3 153.6 623.6 153.8 Q 625.9 153.9 628.2 154.0 Q 630.5 154.0 632.8 153.8 Q 635.1 153.7 637.4 153.0 Q 639.7 152.4 642.1 149.7 Q 644.4 147.0 646.7 141.8 Q 649.0 136.7 651.3 130.8 Q 653.6 125.0 655.9 123.6 Q 658.2 122.3 660.5 126.8 Q 662.8 131.2 665.1 137.3 Q 667.4 143.4 669.7 147.0 Q 672.0 150.6 674.3 152.6 Q 676.6 154.6 678.9 154.3 Q 681.2 154.1 683.5 151.6 Q 685.8 149.1 688.1 146.8 Q 690.4 144.4 692.7 143.7 Q 695.0 142.9 697.3 143.7 Q 699.6 144.5 701.9 146.2 Q 704.2 147.8 706.5 149.3 Q 708.8 150.9 711.1 151.8 Q 713.4 152.6 715.7 153.1 Q 718.0 153.6 720.3 153.6 Q 722.6 153.6 724.9 153.4 Q 727.2 153.2 729.5 153.4 Q 731.8 153.6 734.1 153.6 Q 736.4 153.6 738.7 153.5 Q 741.0 153.3 743.3 153.2 Q 745.6 153.0 747.9 153.3 Q 750.2 153.5 752.5 153.4 Q 754.8 153.3 757.1 153.3 Q 759.4 153.3 761.7 153.4 Q 764.0 153.5 766.3 153.2 Q 768.6 152.9 770.9 153.0 Q 773.2 153.0 775.5 153.0 Q 777.8 152.9 780.1 153.0 Q 782.4 153.0 784.7 152.9 Q 787.0 152.7 789.3 152.7 Q 791.6 152.7 793.9 152.0 Q 796.2 151.4 798.5 149.2 Q 800.8 147.1 803.1 142.2 Q 805.4 137.3 807.7 131.0 Q 810.0 124.6 812.3 122.5 Q 814.6 120.4 816.9 124.1 Q 819.2 127.8 821.5 133.9 Q 823.8 140.1 826.2 144.3 Q 828.5 148.5 830.8 150.6 Q 833.1 152.7 835.4 152.7 Q 837.7 152.8 840.0 150.5 Q 842.3 148.3 844.6 145.7 Q 846.9 143.1 849.2 142.0 Q 851.5 141.0 853.8 141.5 Q 856.1 142.0 858.4 143.6 Q 860.7 145.2 863.0 146.8 Q 865.3 148.4 867.6 149.5 Q 869.9 150.6 872.2 151.0 Q 874.5 151.5 876.8 151.4 Q 879.1 151.3 881.4 151.3 Q 883.7 151.3 886.0 151.3 Q 888.3 151.4 890.6 151.3 Q 892.9 151.2 895.2 151.2 Q 897.5 151.1 899.8 151.1 Q 902.1 151.1 904.4 151.0 Q 906.7 151.0 909.0 151.1 Q 911.3 151.2 913.6 151.0 Q 915.9 150.7 918.2 151.0 Q 920.5 151.2 922.8 151.0 Q 925.1 150.8 927.4 150.8 Q 929.7 150.8 932.0 150.7 Q 934.3 150.7 936.6 150.5 Q 938.9 150.4 941.2 150.4 Q 943.5 150.4 945.8 150.6 Q 948.1 150.7 950.4 150.3 Q 952.7 149.9 955.0 147.7 Q 957.3 145.6 959.6 141.3 Q 961.9 136.9 964.2 130.7 Q 966.5 124.4 968.8 121.2 Q 971.1 118.0 973.4 121.3 Q 975.7 124.6 978.0 130.7 Q 980.3 136.9 982.6 141.2 Q 984.9 145.6 987.2 147.9 Q 989.5 150.2 991.8 150.8 Q 994.1 151.4 996.4 149.3 Q 998.7 147.2 1001.0 144.6 Q 1003.3 142.0 1005.6 140.8 Q 1007.9 139.6 1010.3 139.9 Q 1012.6 140.2 1014.9 141.8 Q 1017.2 143.4 1019.5 145.1 Q 1021.8 146.8 1024.1 147.7 Q 1026.4 148.6 1028.7 149.1 Q 1031.0 149.7 1033.3 149.8 Q 1035.6 149.9 1037.9 150.1 Q 1040.2 150.3 1042.5 150.2 Q 1044.8 150.2 1047.1 150.2 Q 1049.4 150.3 1051.7 150.2 Q 1054.0 150.2 1056.3 150.1 Q 1058.6 150.0 1060.9 150.1 Q 1063.2 150.2 1065.5 150.1 Q 1067.8 150.0 1070.1 150.0 Q 1072.4 150.0 1074.7 149.8 Q 1077.0 149.7 1079.3 150.0 Q 1081.6 150.4 1083.9 150.1 Q 1086.2 149.9 1088.5 150.0 Q 1090.8 150.1 1093.1 150.1 Q 1095.4 150.1 1097.7 150.3 T 1100.0 150.4" fill="none" stroke="#0D9488" stroke-opacity="0.20" stroke-width="1.8" stroke-linecap="round"/>
    <path d="M 0.0 152.0 Q 4.6 151.8 6.9 151.4 Q 9.2 151.1 11.5 149.5 Q 13.8 148.0 16.1 143.8 Q 18.4 139.6 20.7 133.5 Q 23.0 127.4 25.3 123.4 Q 27.6 119.4 29.9 121.5 Q 32.2 123.6 34.5 129.8 Q 36.8 136.0 39.1 140.9 Q 41.4 145.8 43.7 148.3 Q 46.0 150.7 48.3 151.6 Q 50.6 152.5 52.9 150.7 Q 55.2 149.0 57.5 146.3 Q 59.8 143.6 62.1 142.0 Q 64.4 140.4 66.7 140.5 Q 69.0 140.6 71.3 142.2 Q 73.6 143.8 75.9 145.4 Q 78.2 147.0 80.5 148.3 Q 82.8 149.6 85.1 150.1 Q 87.4 150.6 89.7 150.8 Q 92.1 151.0 94.4 150.9 Q 96.7 150.8 99.0 150.8 Q 101.3 150.9 103.6 150.7 Q 105.9 150.6 108.2 150.6 Q 110.5 150.6 112.8 150.6 Q 115.1 150.6 117.4 150.8 Q 119.7 151.0 122.0 150.8 Q 124.3 150.6 126.6 150.5 Q 128.9 150.4 131.2 150.4 Q 133.5 150.4 135.8 150.5 Q 138.1 150.6 140.4 150.5 Q 142.7 150.4 145.0 150.4 Q 147.3 150.5 149.6 150.4 Q 151.9 150.4 154.2 150.2 Q 156.5 150.0 158.8 150.1 Q 161.1 150.3 163.4 149.9 Q 165.7 149.5 168.0 148.1 Q 170.3 146.7 172.6 143.2 Q 174.9 139.6 177.2 133.5 Q 179.5 127.4 181.8 122.9 Q 184.1 118.3 186.4 119.7 Q 188.7 121.1 191.0 127.0 Q 193.3 132.9 195.6 138.1 Q 197.9 143.3 200.2 146.0 Q 202.5 148.7 204.8 150.2 Q 207.1 151.6 209.4 150.1 Q 211.7 148.5 214.0 145.7 Q 216.3 143.0 218.6 141.3 Q 220.9 139.7 223.2 139.4 Q 225.5 139.1 227.8 140.6 Q 230.1 142.0 232.4 143.9 Q 234.7 145.9 237.0 147.0 Q 239.3 148.2 241.6 148.8 Q 243.9 149.4 246.2 149.7 Q 248.5 150.0 250.8 150.0 Q 253.1 150.0 255.4 150.1 Q 257.7 150.2 260.0 150.1 Q 262.3 150.1 264.6 150.0 Q 266.9 149.9 269.2 150.2 Q 271.5 150.4 273.8 150.3 Q 276.2 150.2 278.5 150.3 Q 280.8 150.4 283.1 150.4 Q 285.4 150.3 287.7 150.5 Q 290.0 150.6 292.3 150.6 Q 294.6 150.5 296.9 150.5 Q 299.2 150.5 301.5 150.4 Q 303.8 150.3 306.1 150.3 Q 308.4 150.3 310.7 150.6 Q 313.0 150.8 315.3 150.8 Q 317.6 150.7 319.9 150.4 Q 322.2 150.1 324.5 149.2 Q 326.8 148.4 329.1 145.0 Q 331.4 141.6 333.7 135.8 Q 336.0 129.9 338.3 124.8 Q 340.6 119.6 342.9 120.1 Q 345.2 120.6 347.5 126.3 Q 349.8 131.9 352.1 137.5 Q 354.4 143.1 356.7 146.3 Q 359.0 149.5 361.3 150.8 Q 363.6 152.1 365.9 151.3 Q 368.2 150.6 370.5 147.8 Q 372.8 145.0 375.1 143.0 Q 377.4 141.0 379.7 140.9 Q 382.0 140.7 384.3 141.9 Q 386.6 143.1 388.9 145.0 Q 391.2 146.8 393.5 148.1 Q 395.8 149.4 398.1 150.2 Q 400.4 151.0 402.7 151.2 Q 405.0 151.3 407.3 151.5 Q 409.6 151.6 411.9 151.8 Q 414.2 151.9 416.5 151.8 Q 418.8 151.8 421.1 151.9 Q 423.4 152.1 425.7 152.0 Q 428.0 151.9 430.3 152.0 Q 432.6 152.1 434.9 152.1 Q 437.2 152.1 439.5 152.3 Q 441.8 152.5 444.1 152.4 Q 446.4 152.3 448.7 152.5 Q 451.0 152.7 453.3 152.8 Q 455.6 152.9 457.9 152.7 Q 460.3 152.6 462.6 152.7 Q 464.9 152.8 467.2 152.7 Q 469.5 152.6 471.8 152.4 Q 474.1 152.2 476.4 152.4 Q 478.7 152.6 481.0 151.7 Q 483.3 150.8 485.6 147.9 Q 487.9 144.9 490.2 139.3 Q 492.5 133.8 494.8 128.3 Q 497.1 122.9 499.4 122.5 Q 501.7 122.0 504.0 127.0 Q 506.3 132.0 508.6 137.9 Q 510.9 143.8 513.2 147.4 Q 515.5 151.1 517.8 152.7 Q 520.1 154.3 522.4 153.8 Q 524.7 153.2 527.0 150.6 Q 529.3 148.1 531.6 145.8 Q 533.9 143.5 536.2 143.1 Q 538.5 142.7 540.8 143.6 Q 543.1 144.5 545.4 146.3 Q 547.7 148.1 550.0 149.6 Q 552.3 151.1 554.6 152.0 Q 556.9 152.9 559.2 153.2 Q 561.5 153.5 563.8 153.7 Q 566.1 154.0 568.4 154.0 Q 570.7 153.9 573.0 153.8 Q 575.3 153.7 577.6 153.9 Q 579.9 154.2 582.2 153.9 Q 584.5 153.6 586.8 153.9 Q 589.1 154.2 591.4 153.9 Q 593.7 153.7 596.0 153.9 Q 598.3 154.0 600.6 153.9 Q 602.9 153.7 605.2 153.8 Q 607.5 153.9 609.8 154.0 Q 612.1 154.2 614.4 153.9 Q 616.7 153.7 619.0 153.7 Q 621.3 153.6 623.6 153.8 Q 625.9 153.9 628.2 154.0 Q 630.5 154.0 632.8 153.8 Q 635.1 153.7 637.4 153.0 Q 639.7 152.4 642.1 149.7 Q 644.4 147.0 646.7 141.8 Q 649.0 136.7 651.3 130.8 Q 653.6 125.0 655.9 123.6 Q 658.2 122.3 660.5 126.8 Q 662.8 131.2 665.1 137.3 Q 667.4 143.4 669.7 147.0 Q 672.0 150.6 674.3 152.6 Q 676.6 154.6 678.9 154.3 Q 681.2 154.1 683.5 151.6 Q 685.8 149.1 688.1 146.8 Q 690.4 144.4 692.7 143.7 Q 695.0 142.9 697.3 143.7 Q 699.6 144.5 701.9 146.2 Q 704.2 147.8 706.5 149.3 Q 708.8 150.9 711.1 151.8 Q 713.4 152.6 715.7 153.1 Q 718.0 153.6 720.3 153.6 Q 722.6 153.6 724.9 153.4 Q 727.2 153.2 729.5 153.4 Q 731.8 153.6 734.1 153.6 Q 736.4 153.6 738.7 153.5 Q 741.0 153.3 743.3 153.2 Q 745.6 153.0 747.9 153.3 Q 750.2 153.5 752.5 153.4 Q 754.8 153.3 757.1 153.3 Q 759.4 153.3 761.7 153.4 Q 764.0 153.5 766.3 153.2 Q 768.6 152.9 770.9 153.0 Q 773.2 153.0 775.5 153.0 Q 777.8 152.9 780.1 153.0 Q 782.4 153.0 784.7 152.9 Q 787.0 152.7 789.3 152.7 Q 791.6 152.7 793.9 152.0 Q 796.2 151.4 798.5 149.2 Q 800.8 147.1 803.1 142.2 Q 805.4 137.3 807.7 131.0 Q 810.0 124.6 812.3 122.5 Q 814.6 120.4 816.9 124.1 Q 819.2 127.8 821.5 133.9 Q 823.8 140.1 826.2 144.3 Q 828.5 148.5 830.8 150.6 Q 833.1 152.7 835.4 152.7 Q 837.7 152.8 840.0 150.5 Q 842.3 148.3 844.6 145.7 Q 846.9 143.1 849.2 142.0 Q 851.5 141.0 853.8 141.5 Q 856.1 142.0 858.4 143.6 Q 860.7 145.2 863.0 146.8 Q 865.3 148.4 867.6 149.5 Q 869.9 150.6 872.2 151.0 Q 874.5 151.5 876.8 151.4 Q 879.1 151.3 881.4 151.3 Q 883.7 151.3 886.0 151.3 Q 888.3 151.4 890.6 151.3 Q 892.9 151.2 895.2 151.2 Q 897.5 151.1 899.8 151.1 Q 902.1 151.1 904.4 151.0 Q 906.7 151.0 909.0 151.1 Q 911.3 151.2 913.6 151.0 Q 915.9 150.7 918.2 151.0 Q 920.5 151.2 922.8 151.0 Q 925.1 150.8 927.4 150.8 Q 929.7 150.8 932.0 150.7 Q 934.3 150.7 936.6 150.5 Q 938.9 150.4 941.2 150.4 Q 943.5 150.4 945.8 150.6 Q 948.1 150.7 950.4 150.3 Q 952.7 149.9 955.0 147.7 Q 957.3 145.6 959.6 141.3 Q 961.9 136.9 964.2 130.7 Q 966.5 124.4 968.8 121.2 Q 971.1 118.0 973.4 121.3 Q 975.7 124.6 978.0 130.7 Q 980.3 136.9 982.6 141.2 Q 984.9 145.6 987.2 147.9 Q 989.5 150.2 991.8 150.8 Q 994.1 151.4 996.4 149.3 Q 998.7 147.2 1001.0 144.6 Q 1003.3 142.0 1005.6 140.8 Q 1007.9 139.6 1010.3 139.9 Q 1012.6 140.2 1014.9 141.8 Q 1017.2 143.4 1019.5 145.1 Q 1021.8 146.8 1024.1 147.7 Q 1026.4 148.6 1028.7 149.1 Q 1031.0 149.7 1033.3 149.8 Q 1035.6 149.9 1037.9 150.1 Q 1040.2 150.3 1042.5 150.2 Q 1044.8 150.2 1047.1 150.2 Q 1049.4 150.3 1051.7 150.2 Q 1054.0 150.2 1056.3 150.1 Q 1058.6 150.0 1060.9 150.1 Q 1063.2 150.2 1065.5 150.1 Q 1067.8 150.0 1070.1 150.0 Q 1072.4 150.0 1074.7 149.8 Q 1077.0 149.7 1079.3 150.0 Q 1081.6 150.4 1083.9 150.1 Q 1086.2 149.9 1088.5 150.0 Q 1090.8 150.1 1093.1 150.1 Q 1095.4 150.1 1097.7 150.3 T 1100.0 150.4" fill="none" stroke="url(#tr)" stroke-width="2.4" stroke-linecap="round" filter="url(#gl)"
          stroke-dasharray="300 1416" stroke-dashoffset="1716">
      <animate attributeName="stroke-dashoffset" from="1716" to="0" dur="6s" repeatCount="indefinite"/>
    </path>
    <circle r="4" fill="#5EEAD4" filter="url(#gl)">
      <animateMotion dur="4.95s" repeatCount="indefinite" path="M 0.0 152.0 Q 4.6 151.8 6.9 151.4 Q 9.2 151.1 11.5 149.5 Q 13.8 148.0 16.1 143.8 Q 18.4 139.6 20.7 133.5 Q 23.0 127.4 25.3 123.4 Q 27.6 119.4 29.9 121.5 Q 32.2 123.6 34.5 129.8 Q 36.8 136.0 39.1 140.9 Q 41.4 145.8 43.7 148.3 Q 46.0 150.7 48.3 151.6 Q 50.6 152.5 52.9 150.7 Q 55.2 149.0 57.5 146.3 Q 59.8 143.6 62.1 142.0 Q 64.4 140.4 66.7 140.5 Q 69.0 140.6 71.3 142.2 Q 73.6 143.8 75.9 145.4 Q 78.2 147.0 80.5 148.3 Q 82.8 149.6 85.1 150.1 Q 87.4 150.6 89.7 150.8 Q 92.1 151.0 94.4 150.9 Q 96.7 150.8 99.0 150.8 Q 101.3 150.9 103.6 150.7 Q 105.9 150.6 108.2 150.6 Q 110.5 150.6 112.8 150.6 Q 115.1 150.6 117.4 150.8 Q 119.7 151.0 122.0 150.8 Q 124.3 150.6 126.6 150.5 Q 128.9 150.4 131.2 150.4 Q 133.5 150.4 135.8 150.5 Q 138.1 150.6 140.4 150.5 Q 142.7 150.4 145.0 150.4 Q 147.3 150.5 149.6 150.4 Q 151.9 150.4 154.2 150.2 Q 156.5 150.0 158.8 150.1 Q 161.1 150.3 163.4 149.9 Q 165.7 149.5 168.0 148.1 Q 170.3 146.7 172.6 143.2 Q 174.9 139.6 177.2 133.5 Q 179.5 127.4 181.8 122.9 Q 184.1 118.3 186.4 119.7 Q 188.7 121.1 191.0 127.0 Q 193.3 132.9 195.6 138.1 Q 197.9 143.3 200.2 146.0 Q 202.5 148.7 204.8 150.2 Q 207.1 151.6 209.4 150.1 Q 211.7 148.5 214.0 145.7 Q 216.3 143.0 218.6 141.3 Q 220.9 139.7 223.2 139.4 Q 225.5 139.1 227.8 140.6 Q 230.1 142.0 232.4 143.9 Q 234.7 145.9 237.0 147.0 Q 239.3 148.2 241.6 148.8 Q 243.9 149.4 246.2 149.7 Q 248.5 150.0 250.8 150.0 Q 253.1 150.0 255.4 150.1 Q 257.7 150.2 260.0 150.1 Q 262.3 150.1 264.6 150.0 Q 266.9 149.9 269.2 150.2 Q 271.5 150.4 273.8 150.3 Q 276.2 150.2 278.5 150.3 Q 280.8 150.4 283.1 150.4 Q 285.4 150.3 287.7 150.5 Q 290.0 150.6 292.3 150.6 Q 294.6 150.5 296.9 150.5 Q 299.2 150.5 301.5 150.4 Q 303.8 150.3 306.1 150.3 Q 308.4 150.3 310.7 150.6 Q 313.0 150.8 315.3 150.8 Q 317.6 150.7 319.9 150.4 Q 322.2 150.1 324.5 149.2 Q 326.8 148.4 329.1 145.0 Q 331.4 141.6 333.7 135.8 Q 336.0 129.9 338.3 124.8 Q 340.6 119.6 342.9 120.1 Q 345.2 120.6 347.5 126.3 Q 349.8 131.9 352.1 137.5 Q 354.4 143.1 356.7 146.3 Q 359.0 149.5 361.3 150.8 Q 363.6 152.1 365.9 151.3 Q 368.2 150.6 370.5 147.8 Q 372.8 145.0 375.1 143.0 Q 377.4 141.0 379.7 140.9 Q 382.0 140.7 384.3 141.9 Q 386.6 143.1 388.9 145.0 Q 391.2 146.8 393.5 148.1 Q 395.8 149.4 398.1 150.2 Q 400.4 151.0 402.7 151.2 Q 405.0 151.3 407.3 151.5 Q 409.6 151.6 411.9 151.8 Q 414.2 151.9 416.5 151.8 Q 418.8 151.8 421.1 151.9 Q 423.4 152.1 425.7 152.0 Q 428.0 151.9 430.3 152.0 Q 432.6 152.1 434.9 152.1 Q 437.2 152.1 439.5 152.3 Q 441.8 152.5 444.1 152.4 Q 446.4 152.3 448.7 152.5 Q 451.0 152.7 453.3 152.8 Q 455.6 152.9 457.9 152.7 Q 460.3 152.6 462.6 152.7 Q 464.9 152.8 467.2 152.7 Q 469.5 152.6 471.8 152.4 Q 474.1 152.2 476.4 152.4 Q 478.7 152.6 481.0 151.7 Q 483.3 150.8 485.6 147.9 Q 487.9 144.9 490.2 139.3 Q 492.5 133.8 494.8 128.3 Q 497.1 122.9 499.4 122.5 Q 501.7 122.0 504.0 127.0 Q 506.3 132.0 508.6 137.9 Q 510.9 143.8 513.2 147.4 Q 515.5 151.1 517.8 152.7 Q 520.1 154.3 522.4 153.8 Q 524.7 153.2 527.0 150.6 Q 529.3 148.1 531.6 145.8 Q 533.9 143.5 536.2 143.1 Q 538.5 142.7 540.8 143.6 Q 543.1 144.5 545.4 146.3 Q 547.7 148.1 550.0 149.6 Q 552.3 151.1 554.6 152.0 Q 556.9 152.9 559.2 153.2 Q 561.5 153.5 563.8 153.7 Q 566.1 154.0 568.4 154.0 Q 570.7 153.9 573.0 153.8 Q 575.3 153.7 577.6 153.9 Q 579.9 154.2 582.2 153.9 Q 584.5 153.6 586.8 153.9 Q 589.1 154.2 591.4 153.9 Q 593.7 153.7 596.0 153.9 Q 598.3 154.0 600.6 153.9 Q 602.9 153.7 605.2 153.8 Q 607.5 153.9 609.8 154.0 Q 612.1 154.2 614.4 153.9 Q 616.7 153.7 619.0 153.7 Q 621.3 153.6 623.6 153.8 Q 625.9 153.9 628.2 154.0 Q 630.5 154.0 632.8 153.8 Q 635.1 153.7 637.4 153.0 Q 639.7 152.4 642.1 149.7 Q 644.4 147.0 646.7 141.8 Q 649.0 136.7 651.3 130.8 Q 653.6 125.0 655.9 123.6 Q 658.2 122.3 660.5 126.8 Q 662.8 131.2 665.1 137.3 Q 667.4 143.4 669.7 147.0 Q 672.0 150.6 674.3 152.6 Q 676.6 154.6 678.9 154.3 Q 681.2 154.1 683.5 151.6 Q 685.8 149.1 688.1 146.8 Q 690.4 144.4 692.7 143.7 Q 695.0 142.9 697.3 143.7 Q 699.6 144.5 701.9 146.2 Q 704.2 147.8 706.5 149.3 Q 708.8 150.9 711.1 151.8 Q 713.4 152.6 715.7 153.1 Q 718.0 153.6 720.3 153.6 Q 722.6 153.6 724.9 153.4 Q 727.2 153.2 729.5 153.4 Q 731.8 153.6 734.1 153.6 Q 736.4 153.6 738.7 153.5 Q 741.0 153.3 743.3 153.2 Q 745.6 153.0 747.9 153.3 Q 750.2 153.5 752.5 153.4 Q 754.8 153.3 757.1 153.3 Q 759.4 153.3 761.7 153.4 Q 764.0 153.5 766.3 153.2 Q 768.6 152.9 770.9 153.0 Q 773.2 153.0 775.5 153.0 Q 777.8 152.9 780.1 153.0 Q 782.4 153.0 784.7 152.9 Q 787.0 152.7 789.3 152.7 Q 791.6 152.7 793.9 152.0 Q 796.2 151.4 798.5 149.2 Q 800.8 147.1 803.1 142.2 Q 805.4 137.3 807.7 131.0 Q 810.0 124.6 812.3 122.5 Q 814.6 120.4 816.9 124.1 Q 819.2 127.8 821.5 133.9 Q 823.8 140.1 826.2 144.3 Q 828.5 148.5 830.8 150.6 Q 833.1 152.7 835.4 152.7 Q 837.7 152.8 840.0 150.5 Q 842.3 148.3 844.6 145.7 Q 846.9 143.1 849.2 142.0 Q 851.5 141.0 853.8 141.5 Q 856.1 142.0 858.4 143.6 Q 860.7 145.2 863.0 146.8 Q 865.3 148.4 867.6 149.5 Q 869.9 150.6 872.2 151.0 Q 874.5 151.5 876.8 151.4 Q 879.1 151.3 881.4 151.3 Q 883.7 151.3 886.0 151.3 Q 888.3 151.4 890.6 151.3 Q 892.9 151.2 895.2 151.2 Q 897.5 151.1 899.8 151.1 Q 902.1 151.1 904.4 151.0 Q 906.7 151.0 909.0 151.1 Q 911.3 151.2 913.6 151.0 Q 915.9 150.7 918.2 151.0 Q 920.5 151.2 922.8 151.0 Q 925.1 150.8 927.4 150.8 Q 929.7 150.8 932.0 150.7 Q 934.3 150.7 936.6 150.5 Q 938.9 150.4 941.2 150.4 Q 943.5 150.4 945.8 150.6 Q 948.1 150.7 950.4 150.3 Q 952.7 149.9 955.0 147.7 Q 957.3 145.6 959.6 141.3 Q 961.9 136.9 964.2 130.7 Q 966.5 124.4 968.8 121.2 Q 971.1 118.0 973.4 121.3 Q 975.7 124.6 978.0 130.7 Q 980.3 136.9 982.6 141.2 Q 984.9 145.6 987.2 147.9 Q 989.5 150.2 991.8 150.8 Q 994.1 151.4 996.4 149.3 Q 998.7 147.2 1001.0 144.6 Q 1003.3 142.0 1005.6 140.8 Q 1007.9 139.6 1010.3 139.9 Q 1012.6 140.2 1014.9 141.8 Q 1017.2 143.4 1019.5 145.1 Q 1021.8 146.8 1024.1 147.7 Q 1026.4 148.6 1028.7 149.1 Q 1031.0 149.7 1033.3 149.8 Q 1035.6 149.9 1037.9 150.1 Q 1040.2 150.3 1042.5 150.2 Q 1044.8 150.2 1047.1 150.2 Q 1049.4 150.3 1051.7 150.2 Q 1054.0 150.2 1056.3 150.1 Q 1058.6 150.0 1060.9 150.1 Q 1063.2 150.2 1065.5 150.1 Q 1067.8 150.0 1070.1 150.0 Q 1072.4 150.0 1074.7 149.8 Q 1077.0 149.7 1079.3 150.0 Q 1081.6 150.4 1083.9 150.1 Q 1086.2 149.9 1088.5 150.0 Q 1090.8 150.1 1093.1 150.1 Q 1095.4 150.1 1097.7 150.3 T 1100.0 150.4"/>
      <animate attributeName="r" values="3;5;3" dur="1s" repeatCount="indefinite"/>
    </circle>
    <rect width="1100" height="190" fill="url(#fd)"/>
    <!-- No fade-in on the text. Anything that snapshots the SVG at t=0 (social
         card previews, link unfurls, some markdown renderers) would capture an
         invisible title. The travelling trace carries the motion instead. -->
    <g transform="translate(365.1,72)" fill="#F8F9FA"><path d="M11.5 0.4Q8.3 0.4 6.0 -0.9Q3.6 -2.2 2.4 -4.6Q1.1 -7.1 1.1 -10.5V-10.5Q1.1 -13.9 2.4 -16.3Q3.7 -18.8 6.0 -20.1Q8.3 -21.4 11.4 -21.4Q14.6 -21.4 16.9 -20.1Q19.2 -18.8 20.5 -16.3Q21.8 -13.9 21.8 -10.5V-10.5Q21.8 -7.0 20.6 -4.6Q19.3 -2.2 17.0 -0.9Q14.6 0.4 11.5 0.4ZM11.5 -4.0Q12.9 -4.0 13.9 -4.8Q14.9 -5.5 15.5 -7.0Q16.0 -8.4 16.0 -10.5V-10.5Q16.0 -12.5 15.5 -14.0Q14.9 -15.4 13.9 -16.1Q12.8 -16.9 11.4 -16.9Q10.1 -16.9 9.0 -16.1Q8.0 -15.4 7.5 -14.0Q6.9 -12.5 6.9 -10.5V-10.5Q6.9 -8.4 7.4 -7.0Q8.0 -5.5 9.0 -4.8Q10.1 -4.0 11.5 -4.0Z M37.7 0.4Q36.2 0.4 34.9 -0.1Q33.7 -0.5 32.7 -1.4Q31.8 -2.3 31.2 -3.6H31.1V0.0H25.4V-28.2H31.1V-17.3H31.2Q31.8 -18.6 32.7 -19.5Q33.7 -20.4 34.9 -20.9Q36.2 -21.4 37.7 -21.4Q40.3 -21.4 42.2 -20.1Q44.1 -18.8 45.2 -16.3Q46.2 -13.9 46.2 -10.5V-10.5Q46.2 -7.1 45.2 -4.6Q44.1 -2.2 42.2 -0.9Q40.3 0.4 37.7 0.4ZM35.8 -4.3Q37.2 -4.3 38.2 -5.0Q39.3 -5.8 39.8 -7.2Q40.4 -8.6 40.4 -10.5V-10.5Q40.4 -12.4 39.8 -13.8Q39.3 -15.2 38.2 -15.9Q37.2 -16.6 35.8 -16.6Q34.4 -16.6 33.3 -15.9Q32.3 -15.1 31.7 -13.8Q31.1 -12.4 31.1 -10.5V-10.5Q31.1 -8.6 31.7 -7.2Q32.3 -5.8 33.3 -5.0Q34.4 -4.3 35.8 -4.3Z M58.2 0.4Q55.3 0.4 53.3 -0.4Q51.3 -1.2 50.1 -2.7Q49.0 -4.2 48.8 -6.2L48.8 -6.4H54.3L54.4 -6.2Q54.6 -5.0 55.6 -4.3Q56.5 -3.6 58.2 -3.6Q59.3 -3.6 60.1 -3.9Q60.9 -4.1 61.3 -4.6Q61.7 -5.1 61.7 -5.8V-5.8Q61.7 -6.7 61.1 -7.2Q60.5 -7.7 58.9 -8.0L55.4 -8.8Q53.4 -9.2 52.0 -10.0Q50.6 -10.8 50.0 -12.0Q49.3 -13.2 49.3 -14.8V-14.8Q49.3 -16.8 50.4 -18.3Q51.4 -19.7 53.4 -20.6Q55.4 -21.4 58.0 -21.4Q60.8 -21.4 62.8 -20.5Q64.7 -19.6 65.8 -18.1Q66.8 -16.6 66.8 -14.7L66.9 -14.6H61.6L61.6 -14.7Q61.4 -15.8 60.5 -16.6Q59.6 -17.3 58.0 -17.3Q57.1 -17.3 56.3 -17.1Q55.6 -16.8 55.2 -16.3Q54.8 -15.8 54.8 -15.1V-15.1Q54.8 -14.6 55.1 -14.1Q55.4 -13.7 56.0 -13.4Q56.6 -13.1 57.7 -12.9L61.2 -12.1Q63.4 -11.7 64.8 -10.9Q66.1 -10.1 66.8 -9.0Q67.4 -7.9 67.4 -6.4V-6.4Q67.4 -4.3 66.2 -2.8Q65.1 -1.3 63.0 -0.4Q60.9 0.4 58.2 0.4Z M70.8 0.0V-20.9H76.5V0.0ZM73.7 -23.6Q72.4 -23.6 71.5 -24.5Q70.6 -25.4 70.6 -26.6Q70.6 -27.8 71.5 -28.7Q72.4 -29.6 73.7 -29.6Q75.0 -29.6 75.8 -28.7Q76.7 -27.8 76.7 -26.6Q76.7 -25.4 75.8 -24.5Q75.0 -23.6 73.7 -23.6Z M88.6 0.4Q86.0 0.4 84.1 -0.9Q82.1 -2.2 81.1 -4.6Q80.1 -7.1 80.1 -10.5V-10.5Q80.1 -13.9 81.1 -16.3Q82.1 -18.8 84.1 -20.1Q86.0 -21.4 88.6 -21.4Q90.1 -21.4 91.3 -20.9Q92.6 -20.4 93.5 -19.5Q94.5 -18.6 95.0 -17.3H95.2V-28.2H100.9V0.0H95.2V-3.6H95.0Q94.5 -2.3 93.6 -1.4Q92.6 -0.5 91.4 -0.1Q90.1 0.4 88.6 0.4ZM90.5 -4.3Q91.9 -4.3 92.9 -5.0Q94.0 -5.8 94.6 -7.2Q95.2 -8.6 95.2 -10.5V-10.5Q95.2 -12.4 94.6 -13.8Q94.0 -15.1 92.9 -15.9Q91.9 -16.6 90.5 -16.6Q89.1 -16.6 88.0 -15.9Q87.0 -15.2 86.4 -13.8Q85.9 -12.4 85.9 -10.5V-10.5Q85.9 -8.6 86.4 -7.2Q87.0 -5.8 88.0 -5.0Q89.1 -4.3 90.5 -4.3Z M105.3 0.0V-20.9H111.0V0.0ZM108.1 -23.6Q106.9 -23.6 106.0 -24.5Q105.1 -25.4 105.1 -26.6Q105.1 -27.8 106.0 -28.7Q106.9 -29.6 108.1 -29.6Q109.4 -29.6 110.3 -28.7Q111.2 -27.8 111.2 -26.6Q111.2 -25.4 110.3 -24.5Q109.4 -23.6 108.1 -23.6Z M121.5 0.3Q119.4 0.3 117.9 -0.5Q116.3 -1.3 115.4 -2.7Q114.5 -4.2 114.5 -6.0V-6.0Q114.5 -7.9 115.5 -9.3Q116.4 -10.7 118.2 -11.4Q120.1 -12.2 122.6 -12.4L130.8 -12.9V-9.4L123.5 -8.9Q121.9 -8.8 121.0 -8.1Q120.1 -7.4 120.1 -6.3V-6.3Q120.1 -5.1 121.0 -4.5Q121.9 -3.8 123.4 -3.8Q124.7 -3.8 125.7 -4.3Q126.7 -4.8 127.2 -5.7Q127.8 -6.6 127.8 -7.6V-14.0Q127.8 -15.4 126.9 -16.2Q126.1 -17.0 124.4 -17.0Q122.8 -17.0 121.8 -16.3Q120.9 -15.7 120.7 -14.7L120.6 -14.5H115.4L115.5 -14.7Q115.6 -16.7 116.7 -18.2Q117.9 -19.7 119.9 -20.5Q121.9 -21.4 124.6 -21.4Q127.3 -21.4 129.3 -20.5Q131.3 -19.6 132.4 -18.0Q133.5 -16.5 133.5 -14.4V0.0H127.8V-3.1H127.7Q127.1 -2.1 126.2 -1.3Q125.3 -0.5 124.1 -0.1Q122.9 0.3 121.5 0.3Z M137.7 0.0V-20.9H143.4V-17.5H143.5Q144.3 -19.3 145.9 -20.3Q147.5 -21.4 149.9 -21.4Q153.4 -21.4 155.2 -19.3Q157.1 -17.2 157.1 -13.5V0.0H151.4V-12.3Q151.4 -14.4 150.5 -15.5Q149.5 -16.6 147.6 -16.6Q146.3 -16.6 145.4 -16.1Q144.4 -15.5 143.9 -14.4Q143.4 -13.4 143.4 -12.0V0.0Z M161.9 -9.0V-13.9H174.5V-9.0Z M184.9 0.0 177.7 -20.9H183.8L188.1 -5.0H188.2L192.6 -20.9H198.5L191.3 0.0Z M207.2 0.3Q205.2 0.3 203.6 -0.5Q202.0 -1.3 201.1 -2.7Q200.2 -4.2 200.2 -6.0V-6.0Q200.2 -7.9 201.2 -9.3Q202.1 -10.7 203.9 -11.4Q205.8 -12.2 208.4 -12.4L216.5 -12.9V-9.4L209.2 -8.9Q207.6 -8.8 206.7 -8.1Q205.8 -7.4 205.8 -6.3V-6.3Q205.8 -5.1 206.7 -4.5Q207.6 -3.8 209.1 -3.8Q210.4 -3.8 211.4 -4.3Q212.4 -4.8 213.0 -5.7Q213.5 -6.6 213.5 -7.6V-14.0Q213.5 -15.4 212.7 -16.2Q211.8 -17.0 210.1 -17.0Q208.5 -17.0 207.6 -16.3Q206.6 -15.7 206.4 -14.7L206.4 -14.5H201.1L201.2 -14.7Q201.3 -16.7 202.5 -18.2Q203.6 -19.7 205.6 -20.5Q207.6 -21.4 210.3 -21.4Q213.0 -21.4 215.0 -20.5Q217.0 -19.6 218.1 -18.0Q219.2 -16.5 219.2 -14.4V0.0H213.5V-3.1H213.4Q212.8 -2.1 211.9 -1.3Q211.0 -0.5 209.8 -0.1Q208.6 0.3 207.2 0.3Z M230.5 0.4Q228.2 0.4 226.6 -0.5Q225.0 -1.5 224.2 -3.2Q223.3 -5.0 223.3 -7.4V-20.9H229.0V-8.6Q229.0 -6.6 230.0 -5.4Q230.9 -4.3 232.9 -4.3Q233.8 -4.3 234.6 -4.6Q235.4 -5.0 235.9 -5.6Q236.5 -6.2 236.7 -7.0Q237.0 -7.9 237.0 -8.9V-20.9H242.7V0.0H237.0V-3.4H236.9Q236.4 -2.3 235.5 -1.4Q234.6 -0.5 233.4 -0.0Q232.1 0.4 230.5 0.4Z M247.1 0.0V-28.2H252.8V0.0Z M265.5 0.4Q262.0 0.4 260.3 -1.0Q258.6 -2.5 258.6 -5.8V-16.6H255.7V-20.9H258.6V-26.0H264.4V-20.9H268.2V-16.6H264.4V-6.5Q264.4 -5.0 265.0 -4.4Q265.7 -3.9 267.0 -3.9Q267.4 -3.9 267.7 -3.9Q268.0 -3.9 268.2 -4.0V0.2Q267.7 0.3 267.0 0.4Q266.4 0.4 265.5 0.4Z M272.5 -9.0V-13.9H285.2V-9.0Z M290.0 0.0V-20.9H295.7V-17.4H295.8Q296.5 -19.2 298.0 -20.3Q299.6 -21.4 301.7 -21.4Q303.1 -21.4 304.3 -20.9Q305.5 -20.4 306.3 -19.4Q307.1 -18.4 307.4 -17.0H307.6Q308.0 -18.4 309.0 -19.3Q309.9 -20.3 311.2 -20.8Q312.5 -21.4 314.1 -21.4Q316.1 -21.4 317.7 -20.5Q319.2 -19.6 320.0 -18.0Q320.9 -16.4 320.9 -14.3V0.0H315.2V-12.9Q315.2 -14.1 314.8 -14.9Q314.4 -15.8 313.7 -16.2Q312.9 -16.6 311.8 -16.6Q310.7 -16.6 309.9 -16.1Q309.1 -15.7 308.6 -14.8Q308.2 -13.9 308.2 -12.7V0.0H302.7V-13.1Q302.7 -14.2 302.3 -15.0Q301.9 -15.8 301.1 -16.2Q300.4 -16.6 299.3 -16.6Q298.3 -16.6 297.4 -16.1Q296.6 -15.6 296.2 -14.7Q295.7 -13.8 295.7 -12.6V0.0Z M334.6 0.4Q331.4 0.4 329.1 -0.9Q326.8 -2.2 325.5 -4.7Q324.3 -7.1 324.3 -10.5V-10.5Q324.3 -13.9 325.5 -16.3Q326.8 -18.7 329.1 -20.0Q331.4 -21.4 334.5 -21.4Q337.4 -21.4 339.5 -20.3Q341.6 -19.2 342.8 -17.4Q343.9 -15.6 344.0 -13.3L344.1 -13.2H338.8L338.7 -13.4Q338.5 -14.9 337.4 -15.9Q336.4 -16.9 334.6 -16.9Q333.2 -16.9 332.2 -16.1Q331.2 -15.4 330.6 -13.9Q330.1 -12.5 330.1 -10.5V-10.5Q330.1 -8.4 330.6 -7.0Q331.2 -5.5 332.2 -4.8Q333.2 -4.0 334.6 -4.0Q336.4 -4.0 337.4 -5.0Q338.4 -6.0 338.7 -7.6L338.8 -7.7H344.1L344.1 -7.6Q343.9 -5.3 342.7 -3.5Q341.5 -1.7 339.5 -0.6Q337.4 0.4 334.6 0.4Z M347.3 6.8V-20.9H353.0V-17.3H353.2Q353.7 -18.6 354.7 -19.5Q355.6 -20.4 356.8 -20.9Q358.1 -21.4 359.6 -21.4Q362.2 -21.4 364.1 -20.1Q366.0 -18.8 367.1 -16.3Q368.1 -13.9 368.1 -10.5V-10.5Q368.1 -7.1 367.1 -4.6Q366.0 -2.2 364.2 -0.9Q362.3 0.4 359.6 0.4Q358.1 0.4 356.9 -0.1Q355.6 -0.5 354.7 -1.4Q353.7 -2.3 353.1 -3.6H353.0V6.8ZM357.7 -4.3Q359.1 -4.3 360.1 -5.0Q361.2 -5.8 361.7 -7.2Q362.3 -8.6 362.3 -10.5V-10.5Q362.3 -12.4 361.7 -13.8Q361.2 -15.2 360.1 -15.9Q359.1 -16.6 357.7 -16.6Q356.3 -16.6 355.2 -15.9Q354.2 -15.1 353.6 -13.8Q353.0 -12.4 353.0 -10.5V-10.4Q353.0 -8.6 353.6 -7.2Q354.2 -5.8 355.2 -5.0Q356.3 -4.3 357.7 -4.3Z"/></g>
    <g transform="translate(326.4,100)" fill="#9CA3AF"><path d="M0.4 0.0 3.9 -9.5H5.1V-7.8H4.6L2.0 0.0ZM2.1 -2.6 2.5 -3.8H6.9L7.3 -2.6ZM7.4 0.0 4.7 -7.8V-9.5H5.5L8.9 0.0Z M12.6 0.0V-9.5H13.9L19.2 -2.1L18.1 -2.6H18.9V-9.5H20.3V0.0H19.0L13.7 -7.4L14.8 -6.9H14.0V0.0Z M34.4 0.2Q33.0 0.2 32.0 -0.4Q31.0 -1.0 30.5 -2.1Q29.9 -3.2 29.9 -4.8V-4.8Q29.9 -6.3 30.5 -7.4Q31.0 -8.5 32.0 -9.1Q33.0 -9.7 34.4 -9.7Q35.8 -9.7 36.8 -9.1Q37.7 -8.5 38.3 -7.4Q38.8 -6.3 38.8 -4.8V-4.8Q38.8 -3.2 38.3 -2.1Q37.8 -1.0 36.8 -0.4Q35.8 0.2 34.4 0.2ZM34.4 -1.1Q35.3 -1.1 35.9 -1.6Q36.6 -2.0 36.9 -2.8Q37.3 -3.6 37.3 -4.8V-4.8Q37.3 -5.9 36.9 -6.7Q36.6 -7.5 35.9 -8.0Q35.3 -8.4 34.4 -8.4Q33.5 -8.4 32.8 -8.0Q32.2 -7.5 31.8 -6.7Q31.5 -5.9 31.5 -4.8V-4.8Q31.5 -3.6 31.8 -2.8Q32.2 -2.0 32.8 -1.6Q33.5 -1.1 34.4 -1.1Z M43.5 0.0V-1.2H46.4Q47.4 -1.2 47.9 -1.6Q48.4 -2.0 48.4 -2.8V-2.8Q48.4 -3.3 48.2 -3.6Q48.0 -4.0 47.5 -4.2Q47.0 -4.3 46.3 -4.3H43.5V-5.5H46.0Q47.0 -5.5 47.5 -5.8Q48.0 -6.2 48.0 -6.9V-6.9Q48.0 -7.6 47.5 -7.9Q47.1 -8.3 46.3 -8.3H43.5V-9.5H46.6Q47.5 -9.5 48.2 -9.2Q48.8 -8.9 49.2 -8.4Q49.5 -7.9 49.5 -7.1V-7.1Q49.5 -6.6 49.3 -6.2Q49.1 -5.8 48.7 -5.5Q48.3 -5.2 47.8 -5.1V-5.0Q48.5 -4.9 49.0 -4.6Q49.4 -4.3 49.7 -3.8Q50.0 -3.3 50.0 -2.7V-2.7Q50.0 -1.9 49.6 -1.3Q49.2 -0.6 48.5 -0.3Q47.7 0.0 46.7 0.0ZM42.8 0.0V-9.5H44.3V0.0Z M57.1 0.2Q56.0 0.2 55.2 -0.1Q54.4 -0.5 53.9 -1.1Q53.5 -1.7 53.4 -2.5L53.4 -2.6H54.9L54.9 -2.5Q54.9 -2.1 55.2 -1.7Q55.5 -1.4 56.0 -1.3Q56.5 -1.1 57.1 -1.1Q57.7 -1.1 58.2 -1.3Q58.7 -1.4 58.9 -1.8Q59.2 -2.1 59.2 -2.6V-2.6Q59.2 -3.1 58.8 -3.5Q58.4 -3.8 57.4 -4.0L56.4 -4.2Q55.4 -4.4 54.8 -4.8Q54.2 -5.2 53.9 -5.7Q53.6 -6.2 53.6 -6.9V-7.0Q53.6 -7.8 54.1 -8.4Q54.5 -9.0 55.3 -9.4Q56.1 -9.7 57.1 -9.7Q58.1 -9.7 58.8 -9.4Q59.6 -9.0 60.0 -8.5Q60.5 -7.9 60.5 -7.1L60.5 -7.0H59.1L59.1 -7.1Q59.0 -7.5 58.7 -7.8Q58.5 -8.1 58.0 -8.3Q57.6 -8.4 57.0 -8.4Q56.5 -8.4 56.1 -8.3Q55.6 -8.1 55.4 -7.8Q55.1 -7.5 55.1 -7.0V-7.0Q55.1 -6.7 55.3 -6.4Q55.5 -6.1 55.9 -5.9Q56.2 -5.7 56.9 -5.6L57.9 -5.4Q58.9 -5.2 59.5 -4.8Q60.1 -4.5 60.4 -4.0Q60.7 -3.4 60.7 -2.7V-2.7Q60.7 -1.8 60.3 -1.2Q59.8 -0.5 59.0 -0.1Q58.2 0.2 57.1 0.2Z M64.6 0.0V-9.5H66.1V0.0Z M70.5 0.0V-9.5H73.9Q75.3 -9.5 76.3 -9.0Q77.3 -8.4 77.9 -7.3Q78.4 -6.3 78.4 -4.8V-4.8Q78.4 -3.3 77.9 -2.2Q77.3 -1.1 76.3 -0.6Q75.3 0.0 73.9 0.0ZM72.0 -1.3H73.7Q74.7 -1.3 75.4 -1.7Q76.1 -2.1 76.5 -2.9Q76.9 -3.7 76.9 -4.8V-4.8Q76.9 -5.9 76.5 -6.6Q76.1 -7.4 75.4 -7.8Q74.7 -8.2 73.7 -8.2H72.0Z M82.4 0.0V-9.5H83.9V0.0Z M87.5 0.0 90.9 -9.5H92.1V-7.8H91.7L89.1 0.0ZM89.2 -2.6 89.6 -3.8H93.9L94.3 -2.6ZM94.4 0.0 91.8 -7.8V-9.5H92.6L96.0 0.0Z M99.6 0.0V-9.5H101.0L106.2 -2.1L105.2 -2.6H105.9V-9.5H107.4V0.0H106.0L100.8 -7.4L101.8 -6.9H101.1V0.0Z M117.4 0.0V-9.5H119.1L122.1 -2.0H122.2L125.2 -9.5H127.0V0.0H125.6V-6.9H124.8L126.4 -9.2L122.7 0.0H121.6L117.9 -9.2L119.5 -6.9H118.7V0.0Z M135.2 0.2Q133.9 0.2 132.9 -0.4Q132.0 -1.0 131.4 -2.1Q130.9 -3.2 130.9 -4.7V-4.8Q130.9 -6.3 131.4 -7.4Q132.0 -8.5 132.9 -9.1Q133.9 -9.7 135.2 -9.7Q136.3 -9.7 137.1 -9.3Q138.0 -8.9 138.5 -8.2Q139.1 -7.5 139.2 -6.5L139.2 -6.5H137.7L137.7 -6.5Q137.6 -7.1 137.2 -7.5Q136.9 -7.9 136.4 -8.2Q135.9 -8.4 135.2 -8.4Q134.4 -8.4 133.8 -8.0Q133.1 -7.5 132.8 -6.7Q132.5 -5.9 132.5 -4.8V-4.7Q132.5 -3.6 132.8 -2.8Q133.1 -2.0 133.8 -1.5Q134.4 -1.1 135.2 -1.1Q135.9 -1.1 136.4 -1.3Q136.9 -1.5 137.2 -1.9Q137.6 -2.3 137.7 -2.8L137.7 -2.9H139.2L139.2 -2.8Q139.1 -1.9 138.5 -1.2Q138.0 -0.5 137.1 -0.2Q136.3 0.2 135.2 0.2Z M143.8 -3.2V-4.5H146.4Q147.4 -4.5 147.9 -5.0Q148.4 -5.5 148.4 -6.4V-6.4Q148.4 -7.3 147.9 -7.8Q147.4 -8.2 146.4 -8.2H143.8V-9.5H146.8Q147.7 -9.5 148.5 -9.1Q149.2 -8.7 149.6 -8.0Q150.0 -7.3 150.0 -6.4V-6.4Q150.0 -5.4 149.6 -4.7Q149.2 -4.0 148.5 -3.6Q147.7 -3.2 146.8 -3.2ZM143.1 0.0V-9.5H144.6V0.0Z M161.9 0.0V-8.2H158.9V-9.5H166.4V-8.2H163.4V0.0Z M170.1 0.0V-9.5H171.6V-5.5H176.5V-9.5H178.0V0.0H176.5V-4.2H171.6V0.0Z M181.6 0.0 185.0 -9.5H186.3V-7.8H185.8L183.2 0.0ZM183.3 -2.6 183.7 -3.8H188.0L188.4 -2.6ZM188.5 0.0 185.9 -7.8V-9.5H186.7L190.1 0.0Z M196.1 0.0V-8.2H193.2V-9.5H200.6V-8.2H197.6V0.0Z M213.2 0.2Q212.2 0.2 211.4 -0.1Q210.6 -0.5 210.1 -1.1Q209.6 -1.7 209.6 -2.5L209.6 -2.6H211.0L211.1 -2.5Q211.1 -2.1 211.4 -1.7Q211.7 -1.4 212.2 -1.3Q212.7 -1.1 213.3 -1.1Q213.9 -1.1 214.4 -1.3Q214.8 -1.4 215.1 -1.8Q215.4 -2.1 215.4 -2.6V-2.6Q215.4 -3.1 215.0 -3.5Q214.5 -3.8 213.6 -4.0L212.6 -4.2Q211.6 -4.4 211.0 -4.8Q210.4 -5.2 210.1 -5.7Q209.8 -6.2 209.8 -6.9V-7.0Q209.8 -7.8 210.2 -8.4Q210.7 -9.0 211.5 -9.4Q212.2 -9.7 213.2 -9.7Q214.3 -9.7 215.0 -9.4Q215.8 -9.0 216.2 -8.5Q216.7 -7.9 216.7 -7.1L216.7 -7.0H215.2L215.2 -7.1Q215.2 -7.5 214.9 -7.8Q214.7 -8.1 214.2 -8.3Q213.8 -8.4 213.2 -8.4Q212.7 -8.4 212.2 -8.3Q211.8 -8.1 211.6 -7.8Q211.3 -7.5 211.3 -7.0V-7.0Q211.3 -6.7 211.5 -6.4Q211.7 -6.1 212.0 -5.9Q212.4 -5.7 213.0 -5.6L214.1 -5.4Q215.1 -5.2 215.7 -4.8Q216.3 -4.5 216.6 -4.0Q216.9 -3.4 216.9 -2.7V-2.7Q216.9 -1.8 216.4 -1.2Q216.0 -0.5 215.2 -0.1Q214.4 0.2 213.2 0.2Z M224.6 0.2Q223.5 0.2 222.6 -0.2Q221.7 -0.7 221.3 -1.4Q220.8 -2.2 220.8 -3.3V-9.5H222.3V-3.4Q222.3 -2.7 222.6 -2.2Q222.8 -1.7 223.4 -1.4Q223.9 -1.1 224.6 -1.1Q225.4 -1.1 225.9 -1.4Q226.4 -1.7 226.7 -2.2Q227.0 -2.7 227.0 -3.4V-9.5H228.5V-3.3Q228.5 -2.2 228.0 -1.4Q227.6 -0.7 226.7 -0.2Q225.8 0.2 224.6 0.2Z M232.8 0.0V-9.5H236.6Q237.6 -9.5 238.3 -9.2Q239.0 -8.8 239.4 -8.1Q239.8 -7.5 239.8 -6.6V-6.6Q239.8 -5.6 239.3 -4.9Q238.8 -4.2 238.0 -3.9L240.1 0.0H238.3L236.4 -3.6Q236.4 -3.6 236.4 -3.6Q236.3 -3.6 236.3 -3.6H234.4V0.0ZM234.4 -4.9H236.5Q237.3 -4.9 237.8 -5.3Q238.2 -5.7 238.2 -6.6V-6.6Q238.2 -7.4 237.8 -7.8Q237.3 -8.3 236.4 -8.3H234.4Z M246.5 0.0 243.1 -9.5H244.8L247.3 -1.8H247.4L249.9 -9.5H251.6L248.2 0.0Z M255.2 0.0V-9.5H256.7V0.0Z M263.7 0.0 260.3 -9.5H262.0L264.5 -1.8H264.6L267.1 -9.5H268.7L265.4 0.0Z M272.4 0.0V-9.5H278.4V-8.2H273.9V-5.5H278.2V-4.2H273.9V-1.3H278.4V0.0Z M285.8 0.2Q284.7 0.2 283.9 -0.1Q283.1 -0.5 282.6 -1.1Q282.2 -1.7 282.1 -2.5L282.1 -2.6H283.6L283.6 -2.5Q283.6 -2.1 283.9 -1.7Q284.2 -1.4 284.7 -1.3Q285.2 -1.1 285.8 -1.1Q286.4 -1.1 286.9 -1.3Q287.3 -1.4 287.6 -1.8Q287.9 -2.1 287.9 -2.6V-2.6Q287.9 -3.1 287.5 -3.5Q287.0 -3.8 286.1 -4.0L285.1 -4.2Q284.1 -4.4 283.5 -4.8Q282.9 -5.2 282.6 -5.7Q282.3 -6.2 282.3 -6.9V-7.0Q282.3 -7.8 282.7 -8.4Q283.2 -9.0 284.0 -9.4Q284.7 -9.7 285.8 -9.7Q286.8 -9.7 287.5 -9.4Q288.3 -9.0 288.7 -8.5Q289.2 -7.9 289.2 -7.1L289.2 -7.0H287.8L287.7 -7.1Q287.7 -7.5 287.4 -7.8Q287.2 -8.1 286.7 -8.3Q286.3 -8.4 285.7 -8.4Q285.2 -8.4 284.8 -8.3Q284.3 -8.1 284.1 -7.8Q283.8 -7.5 283.8 -7.0V-7.0Q283.8 -6.7 284.0 -6.4Q284.2 -6.1 284.6 -5.9Q284.9 -5.7 285.5 -5.6L286.6 -5.4Q287.6 -5.2 288.2 -4.8Q288.8 -4.5 289.1 -4.0Q289.4 -3.4 289.4 -2.7V-2.7Q289.4 -1.8 288.9 -1.2Q288.5 -0.5 287.7 -0.1Q286.9 0.2 285.8 0.2Z M298.8 0.0V-7.2H300.2V0.0ZM299.5 -8.4Q299.2 -8.4 298.9 -8.7Q298.6 -8.9 298.6 -9.3Q298.6 -9.7 298.9 -10.0Q299.2 -10.2 299.5 -10.2Q299.9 -10.2 300.2 -10.0Q300.4 -9.7 300.4 -9.3Q300.4 -8.9 300.2 -8.7Q299.9 -8.4 299.5 -8.4Z M308.4 0.2Q307.0 0.2 306.1 -0.4Q305.1 -1.0 304.6 -2.1Q304.1 -3.2 304.1 -4.7V-4.8Q304.1 -6.3 304.6 -7.4Q305.1 -8.5 306.1 -9.1Q307.0 -9.7 308.4 -9.7Q309.4 -9.7 310.3 -9.3Q311.1 -8.9 311.7 -8.2Q312.2 -7.5 312.3 -6.5L312.3 -6.5H310.8L310.8 -6.5Q310.7 -7.1 310.4 -7.5Q310.0 -7.9 309.5 -8.2Q309.0 -8.4 308.4 -8.4Q307.5 -8.4 306.9 -8.0Q306.3 -7.5 305.9 -6.7Q305.6 -5.9 305.6 -4.8V-4.7Q305.6 -3.6 305.9 -2.8Q306.3 -2.0 306.9 -1.5Q307.5 -1.1 308.4 -1.1Q309.0 -1.1 309.5 -1.3Q310.0 -1.5 310.4 -1.9Q310.7 -2.3 310.8 -2.8L310.8 -2.9H312.3L312.3 -2.8Q312.2 -1.9 311.7 -1.2Q311.1 -0.5 310.3 -0.2Q309.4 0.2 308.4 0.2Z M316.2 0.0V-9.5H317.7V-1.3H322.2V0.0Z M330.1 0.2Q328.7 0.2 327.7 -0.4Q326.7 -1.0 326.2 -2.1Q325.6 -3.2 325.6 -4.8V-4.8Q325.6 -6.3 326.2 -7.4Q326.7 -8.5 327.7 -9.1Q328.7 -9.7 330.1 -9.7Q331.5 -9.7 332.5 -9.1Q333.5 -8.5 334.0 -7.4Q334.5 -6.3 334.5 -4.8V-4.8Q334.5 -3.2 334.0 -2.1Q333.5 -1.0 332.5 -0.4Q331.5 0.2 330.1 0.2ZM330.1 -1.1Q331.0 -1.1 331.6 -1.6Q332.3 -2.0 332.6 -2.8Q333.0 -3.6 333.0 -4.8V-4.8Q333.0 -5.9 332.6 -6.7Q332.3 -7.5 331.6 -8.0Q331.0 -8.4 330.1 -8.4Q329.2 -8.4 328.5 -8.0Q327.9 -7.5 327.5 -6.7Q327.2 -5.9 327.2 -4.8V-4.8Q327.2 -3.6 327.5 -2.8Q327.9 -2.0 328.5 -1.6Q329.2 -1.1 330.1 -1.1Z M342.3 0.2Q341.2 0.2 340.3 -0.2Q339.4 -0.7 339.0 -1.4Q338.5 -2.2 338.5 -3.3V-9.5H340.0V-3.4Q340.0 -2.7 340.3 -2.2Q340.5 -1.7 341.1 -1.4Q341.6 -1.1 342.4 -1.1Q343.1 -1.1 343.6 -1.4Q344.1 -1.7 344.4 -2.2Q344.7 -2.7 344.7 -3.4V-9.5H346.2V-3.3Q346.2 -2.2 345.7 -1.4Q345.3 -0.7 344.4 -0.2Q343.5 0.2 342.3 0.2Z M350.5 0.0V-9.5H354.0Q355.4 -9.5 356.4 -9.0Q357.4 -8.4 357.9 -7.3Q358.5 -6.3 358.5 -4.8V-4.8Q358.5 -3.3 357.9 -2.2Q357.4 -1.1 356.4 -0.6Q355.4 0.0 354.0 0.0ZM352.1 -1.3H353.8Q354.8 -1.3 355.5 -1.7Q356.2 -2.1 356.6 -2.9Q356.9 -3.7 356.9 -4.8V-4.8Q356.9 -5.9 356.6 -6.6Q356.2 -7.4 355.5 -7.8Q354.8 -8.2 353.8 -8.2H352.1Z M368.1 0.0V-9.5H374.1V-8.2H369.6V-5.5H373.9V-4.2H369.6V-1.3H374.1V0.0Z M380.9 0.0 377.5 -9.5H379.1L381.7 -1.8H381.8L384.3 -9.5H385.9L382.6 0.0Z M389.5 0.0V-9.5H391.1V0.0Z M399.3 0.2Q398.0 0.2 397.0 -0.4Q396.1 -1.0 395.5 -2.1Q395.0 -3.2 395.0 -4.7V-4.8Q395.0 -6.3 395.5 -7.4Q396.1 -8.5 397.0 -9.1Q398.0 -9.7 399.3 -9.7Q400.4 -9.7 401.2 -9.3Q402.1 -8.9 402.6 -8.2Q403.2 -7.5 403.3 -6.5L403.3 -6.5H401.8L401.8 -6.5Q401.6 -7.1 401.3 -7.5Q401.0 -7.9 400.5 -8.2Q399.9 -8.4 399.3 -8.4Q398.5 -8.4 397.9 -8.0Q397.2 -7.5 396.9 -6.7Q396.6 -5.9 396.6 -4.8V-4.7Q396.6 -3.6 396.9 -2.8Q397.2 -2.0 397.9 -1.5Q398.5 -1.1 399.3 -1.1Q400.0 -1.1 400.5 -1.3Q401.0 -1.5 401.3 -1.9Q401.6 -2.3 401.8 -2.8L401.8 -2.9H403.3L403.3 -2.8Q403.1 -1.9 402.6 -1.2Q402.1 -0.5 401.2 -0.2Q400.4 0.2 399.3 0.2Z M409.6 0.0V-8.2H406.6V-9.5H414.1V-8.2H411.1V0.0Z M417.8 0.0V-9.5H419.4V0.0Z M427.8 0.2Q426.4 0.2 425.4 -0.4Q424.4 -1.0 423.9 -2.1Q423.3 -3.2 423.3 -4.8V-4.8Q423.3 -6.3 423.9 -7.4Q424.4 -8.5 425.4 -9.1Q426.4 -9.7 427.8 -9.7Q429.1 -9.7 430.1 -9.1Q431.1 -8.5 431.7 -7.4Q432.2 -6.3 432.2 -4.8V-4.8Q432.2 -3.2 431.7 -2.1Q431.1 -1.0 430.1 -0.4Q429.1 0.2 427.8 0.2ZM427.8 -1.1Q428.7 -1.1 429.3 -1.6Q430.0 -2.0 430.3 -2.8Q430.7 -3.6 430.7 -4.8V-4.8Q430.7 -5.9 430.3 -6.7Q430.0 -7.5 429.3 -8.0Q428.7 -8.4 427.8 -8.4Q426.9 -8.4 426.2 -8.0Q425.6 -7.5 425.2 -6.7Q424.9 -5.9 424.9 -4.8V-4.8Q424.9 -3.6 425.2 -2.8Q425.6 -2.0 426.2 -1.6Q426.9 -1.1 427.8 -1.1Z M436.2 0.0V-9.5H437.5L442.8 -2.1L441.7 -2.6H442.5V-9.5H444.0V0.0H442.6L437.3 -7.4L438.4 -6.9H437.6V0.0Z"/></g>
  </g>
</svg>