<svg xmlns="http://www.w3.org/2000/svg" viewBox="0 0 1100 190" width="1100" height="190" role="img" aria-label="obsidian-icloud-mcp — AN OBSIDIAN MCP THAT SURVIVES iCLOUD EVICTION">
  <defs>
    <linearGradient id="tr" x1="0" y1="0" x2="1" y2="0">
      <stop offset="0%" stop-color="#0D9488"/><stop offset="55%" stop-color="#5EEAD4"/><stop offset="100%" stop-color="#0D9488"/>
    </linearGradient>
    <linearGradient id="fd" x1="0" y1="0" x2="1" y2="0">
      <stop offset="0%" stop-color="#0D1117" stop-opacity="1"/><stop offset="10%" stop-color="#0D1117" stop-opacity="0"/>
      <stop offset="90%" stop-color="#0D1117" stop-opacity="0"/><stop offset="100%" stop-color="#0D1117" stop-opacity="1"/>
    </linearGradient>
    <radialGradient id="halo" cx="50%" cy="30%" r="60%">
      <stop offset="0%" stop-color="#0D9488" stop-opacity="0.17"/>
      <stop offset="100%" stop-color="#0D9488" stop-opacity="0"/>
    </radialGradient>
    <filter id="gl" x="-50%" y="-50%" width="200%" height="200%">
      <feGaussianBlur stdDeviation="3.5" result="b"/><feMerge><feMergeNode in="b"/><feMergeNode in="SourceGraphic"/></feMerge>
    </filter>
    <clipPath id="cp"><rect width="1100" height="190" rx="14"/></clipPath>
  </defs>
  <g clip-path="url(#cp)">
    <rect width="1100" height="190" fill="#0D1117"/>
    <rect width="1100" height="190" fill="url(#halo)"/>
    <g stroke="#0D9488" stroke-opacity="0.06" stroke-width="1"><line x1="0" y1="0" x2="0" y2="190"/><line x1="55" y1="0" x2="55" y2="190"/><line x1="110" y1="0" x2="110" y2="190"/><line x1="165" y1="0" x2="165" y2="190"/><line x1="220" y1="0" x2="220" y2="190"/><line x1="275" y1="0" x2="275" y2="190"/><line x1="330" y1="0" x2="330" y2="190"/><line x1="385" y1="0" x2="385" y2="190"/><line x1="440" y1="0" x2="440" y2="190"/><line x1="495" y1="0" x2="495" y2="190"/><line x1="550" y1="0" x2="550" y2="190"/><line x1="605" y1="0" x2="605" y2="190"/><line x1="660" y1="0" x2="660" y2="190"/><line x1="715" y1="0" x2="715" y2="190"/><line x1="770" y1="0" x2="770" y2="190"/><line x1="825" y1="0" x2="825" y2="190"/><line x1="880" y1="0" x2="880" y2="190"/><line x1="935" y1="0" x2="935" y2="190"/><line x1="990" y1="0" x2="990" y2="190"/><line x1="1045" y1="0" x2="1045" y2="190"/><line x1="1100" y1="0" x2="1100" y2="190"/></g>
    <path d="M 0.0 152.0 Q 4.6 151.8 6.9 151.4 Q 9.2 151.1 11.5 149.5 Q 13.8 148.0 16.1 143.8 Q 18.4 139.6 20.7 133.5 Q 23.0 127.4 25.3 123.4 Q 27.6 119.4 29.9 121.5 Q 32.2 123.6 34.5 129.8 Q 36.8 136.0 39.1 140.9 Q 41.4 145.8 43.7 148.3 Q 46.0 150.7 48.3 151.6 Q 50.6 152.5 52.9 150.7 Q 55.2 149.0 57.5 146.3 Q 59.8 143.6 62.1 142.0 Q 64.4 140.4 66.7 140.5 Q 69.0 140.6 71.3 142.2 Q 73.6 143.8 75.9 145.4 Q 78.2 147.0 80.5 148.3 Q 82.8 149.6 85.1 150.1 Q 87.4 150.6 89.7 150.8 Q 92.1 151.0 94.4 150.9 Q 96.7 150.8 99.0 150.8 Q 101.3 150.9 103.6 150.7 Q 105.9 150.6 108.2 150.6 Q 110.5 150.6 112.8 150.6 Q 115.1 150.6 117.4 150.8 Q 119.7 151.0 122.0 150.8 Q 124.3 150.6 126.6 150.5 Q 128.9 150.4 131.2 150.4 Q 133.5 150.4 135.8 150.5 Q 138.1 150.6 140.4 150.5 Q 142.7 150.4 145.0 150.4 Q 147.3 150.5 149.6 150.4 Q 151.9 150.4 154.2 150.2 Q 156.5 150.0 158.8 150.1 Q 161.1 150.3 163.4 149.9 Q 165.7 149.5 168.0 148.1 Q 170.3 146.7 172.6 143.2 Q 174.9 139.6 177.2 133.5 Q 179.5 127.4 181.8 122.9 Q 184.1 118.3 186.4 119.7 Q 188.7 121.1 191.0 127.0 Q 193.3 132.9 195.6 138.1 Q 197.9 143.3 200.2 146.0 Q 202.5 148.7 204.8 150.2 Q 207.1 151.6 209.4 150.1 Q 211.7 148.5 214.0 145.7 Q 216.3 143.0 218.6 141.3 Q 220.9 139.7 223.2 139.4 Q 225.5 139.1 227.8 140.6 Q 230.1 142.0 232.4 143.9 Q 234.7 145.9 237.0 147.0 Q 239.3 148.2 241.6 148.8 Q 243.9 149.4 246.2 149.7 Q 248.5 150.0 250.8 150.0 Q 253.1 150.0 255.4 150.1 Q 257.7 150.2 260.0 150.1 Q 262.3 150.1 264.6 150.0 Q 266.9 149.9 269.2 150.2 Q 271.5 150.4 273.8 150.3 Q 276.2 150.2 278.5 150.3 Q 280.8 150.4 283.1 150.4 Q 285.4 150.3 287.7 150.5 Q 290.0 150.6 292.3 150.6 Q 294.6 150.5 296.9 150.5 Q 299.2 150.5 301.5 150.4 Q 303.8 150.3 306.1 150.3 Q 308.4 150.3 310.7 150.6 Q 313.0 150.8 315.3 150.8 Q 317.6 150.7 319.9 150.4 Q 322.2 150.1 324.5 149.2 Q 326.8 148.4 329.1 145.0 Q 331.4 141.6 333.7 135.8 Q 336.0 129.9 338.3 124.8 Q 340.6 119.6 342.9 120.1 Q 345.2 120.6 347.5 126.3 Q 349.8 131.9 352.1 137.5 Q 354.4 143.1 356.7 146.3 Q 359.0 149.5 361.3 150.8 Q 363.6 152.1 365.9 151.3 Q 368.2 150.6 370.5 147.8 Q 372.8 145.0 375.1 143.0 Q 377.4 141.0 379.7 140.9 Q 382.0 140.7 384.3 141.9 Q 386.6 143.1 388.9 145.0 Q 391.2 146.8 393.5 148.1 Q 395.8 149.4 398.1 150.2 Q 400.4 151.0 402.7 151.2 Q 405.0 151.3 407.3 151.5 Q 409.6 151.6 411.9 151.8 Q 414.2 151.9 416.5 151.8 Q 418.8 151.8 421.1 151.9 Q 423.4 152.1 425.7 152.0 Q 428.0 151.9 430.3 152.0 Q 432.6 152.1 434.9 152.1 Q 437.2 152.1 439.5 152.3 Q 441.8 152.5 444.1 152.4 Q 446.4 152.3 448.7 152.5 Q 451.0 152.7 453.3 152.8 Q 455.6 152.9 457.9 152.7 Q 460.3 152.6 462.6 152.7 Q 464.9 152.8 467.2 152.7 Q 469.5 152.6 471.8 152.4 Q 474.1 152.2 476.4 152.4 Q 478.7 152.6 481.0 151.7 Q 483.3 150.8 485.6 147.9 Q 487.9 144.9 490.2 139.3 Q 492.5 133.8 494.8 128.3 Q 497.1 122.9 499.4 122.5 Q 501.7 122.0 504.0 127.0 Q 506.3 132.0 508.6 137.9 Q 510.9 143.8 513.2 147.4 Q 515.5 151.1 517.8 152.7 Q 520.1 154.3 522.4 153.8 Q 524.7 153.2 527.0 150.6 Q 529.3 148.1 531.6 145.8 Q 533.9 143.5 536.2 143.1 Q 538.5 142.7 540.8 143.6 Q 543.1 144.5 545.4 146.3 Q 547.7 148.1 550.0 149.6 Q 552.3 151.1 554.6 152.0 Q 556.9 152.9 559.2 153.2 Q 561.5 153.5 563.8 153.7 Q 566.1 154.0 568.4 154.0 Q 570.7 153.9 573.0 153.8 Q 575.3 153.7 577.6 153.9 Q 579.9 154.2 582.2 153.9 Q 584.5 153.6 586.8 153.9 Q 589.1 154.2 591.4 153.9 Q 593.7 153.7 596.0 153.9 Q 598.3 154.0 600.6 153.9 Q 602.9 153.7 605.2 153.8 Q 607.5 153.9 609.8 154.0 Q 612.1 154.2 614.4 153.9 Q 616.7 153.7 619.0 153.7 Q 621.3 153.6 623.6 153.8 Q 625.9 153.9 628.2 154.0 Q 630.5 154.0 632.8 153.8 Q 635.1 153.7 637.4 153.0 Q 639.7 152.4 642.1 149.7 Q 644.4 147.0 646.7 141.8 Q 649.0 136.7 651.3 130.8 Q 653.6 125.0 655.9 123.6 Q 658.2 122.3 660.5 126.8 Q 662.8 131.2 665.1 137.3 Q 667.4 143.4 669.7 147.0 Q 672.0 150.6 674.3 152.6 Q 676.6 154.6 678.9 154.3 Q 681.2 154.1 683.5 151.6 Q 685.8 149.1 688.1 146.8 Q 690.4 144.4 692.7 143.7 Q 695.0 142.9 697.3 143.7 Q 699.6 144.5 701.9 146.2 Q 704.2 147.8 706.5 149.3 Q 708.8 150.9 711.1 151.8 Q 713.4 152.6 715.7 153.1 Q 718.0 153.6 720.3 153.6 Q 722.6 153.6 724.9 153.4 Q 727.2 153.2 729.5 153.4 Q 731.8 153.6 734.1 153.6 Q 736.4 153.6 738.7 153.5 Q 741.0 153.3 743.3 153.2 Q 745.6 153.0 747.9 153.3 Q 750.2 153.5 752.5 153.4 Q 754.8 153.3 757.1 153.3 Q 759.4 153.3 761.7 153.4 Q 764.0 153.5 766.3 153.2 Q 768.6 152.9 770.9 153.0 Q 773.2 153.0 775.5 153.0 Q 777.8 152.9 780.1 153.0 Q 782.4 153.0 784.7 152.9 Q 787.0 152.7 789.3 152.7 Q 791.6 152.7 793.9 152.0 Q 796.2 151.4 798.5 149.2 Q 800.8 147.1 803.1 142.2 Q 805.4 137.3 807.7 131.0 Q 810.0 124.6 812.3 122.5 Q 814.6 120.4 816.9 124.1 Q 819.2 127.8 821.5 133.9 Q 823.8 140.1 826.2 144.3 Q 828.5 148.5 830.8 150.6 Q 833.1 152.7 835.4 152.7 Q 837.7 152.8 840.0 150.5 Q 842.3 148.3 844.6 145.7 Q 846.9 143.1 849.2 142.0 Q 851.5 141.0 853.8 141.5 Q 856.1 142.0 858.4 143.6 Q 860.7 145.2 863.0 146.8 Q 865.3 148.4 867.6 149.5 Q 869.9 150.6 872.2 151.0 Q 874.5 151.5 876.8 151.4 Q 879.1 151.3 881.4 151.3 Q 883.7 151.3 886.0 151.3 Q 888.3 151.4 890.6 151.3 Q 892.9 151.2 895.2 151.2 Q 897.5 151.1 899.8 151.1 Q 902.1 151.1 904.4 151.0 Q 906.7 151.0 909.0 151.1 Q 911.3 151.2 913.6 151.0 Q 915.9 150.7 918.2 151.0 Q 920.5 151.2 922.8 151.0 Q 925.1 150.8 927.4 150.8 Q 929.7 150.8 932.0 150.7 Q 934.3 150.7 936.6 150.5 Q 938.9 150.4 941.2 150.4 Q 943.5 150.4 945.8 150.6 Q 948.1 150.7 950.4 150.3 Q 952.7 149.9 955.0 147.7 Q 957.3 145.6 959.6 141.3 Q 961.9 136.9 964.2 130.7 Q 966.5 124.4 968.8 121.2 Q 971.1 118.0 973.4 121.3 Q 975.7 124.6 978.0 130.7 Q 980.3 136.9 982.6 141.2 Q 984.9 145.6 987.2 147.9 Q 989.5 150.2 991.8 150.8 Q 994.1 151.4 996.4 149.3 Q 998.7 147.2 1001.0 144.6 Q 1003.3 142.0 1005.6 140.8 Q 1007.9 139.6 1010.3 139.9 Q 1012.6 140.2 1014.9 141.8 Q 1017.2 143.4 1019.5 145.1 Q 1021.8 146.8 1024.1 147.7 Q 1026.4 148.6 1028.7 149.1 Q 1031.0 149.7 1033.3 149.8 Q 1035.6 149.9 1037.9 150.1 Q 1040.2 150.3 1042.5 150.2 Q 1044.8 150.2 1047.1 150.2 Q 1049.4 150.3 1051.7 150.2 Q 1054.0 150.2 1056.3 150.1 Q 1058.6 150.0 1060.9 150.1 Q 1063.2 150.2 1065.5 150.1 Q 1067.8 150.0 1070.1 150.0 Q 1072.4 150.0 1074.7 149.8 Q 1077.0 149.7 1079.3 150.0 Q 1081.6 150.4 1083.9 150.1 Q 1086.2 149.9 1088.5 150.0 Q 1090.8 150.1 1093.1 150.1 Q 1095.4 150.1 1097.7 150.3 T 1100.0 150.4" fill="none" stroke="#0D9488" stroke-opacity="0.20" stroke-width="1.8" stroke-linecap="round"/>
    <path d="M 0.0 152.0 Q 4.6 151.8 6.9 151.4 Q 9.2 151.1 11.5 149.5 Q 13.8 148.0 16.1 143.8 Q 18.4 139.6 20.7 133.5 Q 23.0 127.4 25.3 123.4 Q 27.6 119.4 29.9 121.5 Q 32.2 123.6 34.5 129.8 Q 36.8 136.0 39.1 140.9 Q 41.4 145.8 43.7 148.3 Q 46.0 150.7 48.3 151.6 Q 50.6 152.5 52.9 150.7 Q 55.2 149.0 57.5 146.3 Q 59.8 143.6 62.1 142.0 Q 64.4 140.4 66.7 140.5 Q 69.0 140.6 71.3 142.2 Q 73.6 143.8 75.9 145.4 Q 78.2 147.0 80.5 148.3 Q 82.8 149.6 85.1 150.1 Q 87.4 150.6 89.7 150.8 Q 92.1 151.0 94.4 150.9 Q 96.7 150.8 99.0 150.8 Q 101.3 150.9 103.6 150.7 Q 105.9 150.6 108.2 150.6 Q 110.5 150.6 112.8 150.6 Q 115.1 150.6 117.4 150.8 Q 119.7 151.0 122.0 150.8 Q 124.3 150.6 126.6 150.5 Q 128.9 150.4 131.2 150.4 Q 133.5 150.4 135.8 150.5 Q 138.1 150.6 140.4 150.5 Q 142.7 150.4 145.0 150.4 Q 147.3 150.5 149.6 150.4 Q 151.9 150.4 154.2 150.2 Q 156.5 150.0 158.8 150.1 Q 161.1 150.3 163.4 149.9 Q 165.7 149.5 168.0 148.1 Q 170.3 146.7 172.6 143.2 Q 174.9 139.6 177.2 133.5 Q 179.5 127.4 181.8 122.9 Q 184.1 118.3 186.4 119.7 Q 188.7 121.1 191.0 127.0 Q 193.3 132.9 195.6 138.1 Q 197.9 143.3 200.2 146.0 Q 202.5 148.7 204.8 150.2 Q 207.1 151.6 209.4 150.1 Q 211.7 148.5 214.0 145.7 Q 216.3 143.0 218.6 141.3 Q 220.9 139.7 223.2 139.4 Q 225.5 139.1 227.8 140.6 Q 230.1 142.0 232.4 143.9 Q 234.7 145.9 237.0 147.0 Q 239.3 148.2 241.6 148.8 Q 243.9 149.4 246.2 149.7 Q 248.5 150.0 250.8 150.0 Q 253.1 150.0 255.4 150.1 Q 257.7 150.2 260.0 150.1 Q 262.3 150.1 264.6 150.0 Q 266.9 149.9 269.2 150.2 Q 271.5 150.4 273.8 150.3 Q 276.2 150.2 278.5 150.3 Q 280.8 150.4 283.1 150.4 Q 285.4 150.3 287.7 150.5 Q 290.0 150.6 292.3 150.6 Q 294.6 150.5 296.9 150.5 Q 299.2 150.5 301.5 150.4 Q 303.8 150.3 306.1 150.3 Q 308.4 150.3 310.7 150.6 Q 313.0 150.8 315.3 150.8 Q 317.6 150.7 319.9 150.4 Q 322.2 150.1 324.5 149.2 Q 326.8 148.4 329.1 145.0 Q 331.4 141.6 333.7 135.8 Q 336.0 129.9 338.3 124.8 Q 340.6 119.6 342.9 120.1 Q 345.2 120.6 347.5 126.3 Q 349.8 131.9 352.1 137.5 Q 354.4 143.1 356.7 146.3 Q 359.0 149.5 361.3 150.8 Q 363.6 152.1 365.9 151.3 Q 368.2 150.6 370.5 147.8 Q 372.8 145.0 375.1 143.0 Q 377.4 141.0 379.7 140.9 Q 382.0 140.7 384.3 141.9 Q 386.6 143.1 388.9 145.0 Q 391.2 146.8 393.5 148.1 Q 395.8 149.4 398.1 150.2 Q 400.4 151.0 402.7 151.2 Q 405.0 151.3 407.3 151.5 Q 409.6 151.6 411.9 151.8 Q 414.2 151.9 416.5 151.8 Q 418.8 151.8 421.1 151.9 Q 423.4 152.1 425.7 152.0 Q 428.0 151.9 430.3 152.0 Q 432.6 152.1 434.9 152.1 Q 437.2 152.1 439.5 152.3 Q 441.8 152.5 444.1 152.4 Q 446.4 152.3 448.7 152.5 Q 451.0 152.7 453.3 152.8 Q 455.6 152.9 457.9 152.7 Q 460.3 152.6 462.6 152.7 Q 464.9 152.8 467.2 152.7 Q 469.5 152.6 471.8 152.4 Q 474.1 152.2 476.4 152.4 Q 478.7 152.6 481.0 151.7 Q 483.3 150.8 485.6 147.9 Q 487.9 144.9 490.2 139.3 Q 492.5 133.8 494.8 128.3 Q 497.1 122.9 499.4 122.5 Q 501.7 122.0 504.0 127.0 Q 506.3 132.0 508.6 137.9 Q 510.9 143.8 513.2 147.4 Q 515.5 151.1 517.8 152.7 Q 520.1 154.3 522.4 153.8 Q 524.7 153.2 527.0 150.6 Q 529.3 148.1 531.6 145.8 Q 533.9 143.5 536.2 143.1 Q 538.5 142.7 540.8 143.6 Q 543.1 144.5 545.4 146.3 Q 547.7 148.1 550.0 149.6 Q 552.3 151.1 554.6 152.0 Q 556.9 152.9 559.2 153.2 Q 561.5 153.5 563.8 153.7 Q 566.1 154.0 568.4 154.0 Q 570.7 153.9 573.0 153.8 Q 575.3 153.7 577.6 153.9 Q 579.9 154.2 582.2 153.9 Q 584.5 153.6 586.8 153.9 Q 589.1 154.2 591.4 153.9 Q 593.7 153.7 596.0 153.9 Q 598.3 154.0 600.6 153.9 Q 602.9 153.7 605.2 153.8 Q 607.5 153.9 609.8 154.0 Q 612.1 154.2 614.4 153.9 Q 616.7 153.7 619.0 153.7 Q 621.3 153.6 623.6 153.8 Q 625.9 153.9 628.2 154.0 Q 630.5 154.0 632.8 153.8 Q 635.1 153.7 637.4 153.0 Q 639.7 152.4 642.1 149.7 Q 644.4 147.0 646.7 141.8 Q 649.0 136.7 651.3 130.8 Q 653.6 125.0 655.9 123.6 Q 658.2 122.3 660.5 126.8 Q 662.8 131.2 665.1 137.3 Q 667.4 143.4 669.7 147.0 Q 672.0 150.6 674.3 152.6 Q 676.6 154.6 678.9 154.3 Q 681.2 154.1 683.5 151.6 Q 685.8 149.1 688.1 146.8 Q 690.4 144.4 692.7 143.7 Q 695.0 142.9 697.3 143.7 Q 699.6 144.5 701.9 146.2 Q 704.2 147.8 706.5 149.3 Q 708.8 150.9 711.1 151.8 Q 713.4 152.6 715.7 153.1 Q 718.0 153.6 720.3 153.6 Q 722.6 153.6 724.9 153.4 Q 727.2 153.2 729.5 153.4 Q 731.8 153.6 734.1 153.6 Q 736.4 153.6 738.7 153.5 Q 741.0 153.3 743.3 153.2 Q 745.6 153.0 747.9 153.3 Q 750.2 153.5 752.5 153.4 Q 754.8 153.3 757.1 153.3 Q 759.4 153.3 761.7 153.4 Q 764.0 153.5 766.3 153.2 Q 768.6 152.9 770.9 153.0 Q 773.2 153.0 775.5 153.0 Q 777.8 152.9 780.1 153.0 Q 782.4 153.0 784.7 152.9 Q 787.0 152.7 789.3 152.7 Q 791.6 152.7 793.9 152.0 Q 796.2 151.4 798.5 149.2 Q 800.8 147.1 803.1 142.2 Q 805.4 137.3 807.7 131.0 Q 810.0 124.6 812.3 122.5 Q 814.6 120.4 816.9 124.1 Q 819.2 127.8 821.5 133.9 Q 823.8 140.1 826.2 144.3 Q 828.5 148.5 830.8 150.6 Q 833.1 152.7 835.4 152.7 Q 837.7 152.8 840.0 150.5 Q 842.3 148.3 844.6 145.7 Q 846.9 143.1 849.2 142.0 Q 851.5 141.0 853.8 141.5 Q 856.1 142.0 858.4 143.6 Q 860.7 145.2 863.0 146.8 Q 865.3 148.4 867.6 149.5 Q 869.9 150.6 872.2 151.0 Q 874.5 151.5 876.8 151.4 Q 879.1 151.3 881.4 151.3 Q 883.7 151.3 886.0 151.3 Q 888.3 151.4 890.6 151.3 Q 892.9 151.2 895.2 151.2 Q 897.5 151.1 899.8 151.1 Q 902.1 151.1 904.4 151.0 Q 906.7 151.0 909.0 151.1 Q 911.3 151.2 913.6 151.0 Q 915.9 150.7 918.2 151.0 Q 920.5 151.2 922.8 151.0 Q 925.1 150.8 927.4 150.8 Q 929.7 150.8 932.0 150.7 Q 934.3 150.7 936.6 150.5 Q 938.9 150.4 941.2 150.4 Q 943.5 150.4 945.8 150.6 Q 948.1 150.7 950.4 150.3 Q 952.7 149.9 955.0 147.7 Q 957.3 145.6 959.6 141.3 Q 961.9 136.9 964.2 130.7 Q 966.5 124.4 968.8 121.2 Q 971.1 118.0 973.4 121.3 Q 975.7 124.6 978.0 130.7 Q 980.3 136.9 982.6 141.2 Q 984.9 145.6 987.2 147.9 Q 989.5 150.2 991.8 150.8 Q 994.1 151.4 996.4 149.3 Q 998.7 147.2 1001.0 144.6 Q 1003.3 142.0 1005.6 140.8 Q 1007.9 139.6 1010.3 139.9 Q 1012.6 140.2 1014.9 141.8 Q 1017.2 143.4 1019.5 145.1 Q 1021.8 146.8 1024.1 147.7 Q 1026.4 148.6 1028.7 149.1 Q 1031.0 149.7 1033.3 149.8 Q 1035.6 149.9 1037.9 150.1 Q 1040.2 150.3 1042.5 150.2 Q 1044.8 150.2 1047.1 150.2 Q 1049.4 150.3 1051.7 150.2 Q 1054.0 150.2 1056.3 150.1 Q 1058.6 150.0 1060.9 150.1 Q 1063.2 150.2 1065.5 150.1 Q 1067.8 150.0 1070.1 150.0 Q 1072.4 150.0 1074.7 149.8 Q 1077.0 149.7 1079.3 150.0 Q 1081.6 150.4 1083.9 150.1 Q 1086.2 149.9 1088.5 150.0 Q 1090.8 150.1 1093.1 150.1 Q 1095.4 150.1 1097.7 150.3 T 1100.0 150.4" fill="none" stroke="url(#tr)" stroke-width="2.4" stroke-linecap="round" filter="url(#gl)"
          stroke-dasharray="300 1416" stroke-dashoffset="1716">
      <animate attributeName="stroke-dashoffset" from="1716" to="0" dur="6s" repeatCount="indefinite"/>
    </path>
    <circle r="4" fill="#5EEAD4" filter="url(#gl)">
      <animateMotion dur="4.95s" repeatCount="indefinite" path="M 0.0 152.0 Q 4.6 151.8 6.9 151.4 Q 9.2 151.1 11.5 149.5 Q 13.8 148.0 16.1 143.8 Q 18.4 139.6 20.7 133.5 Q 23.0 127.4 25.3 123.4 Q 27.6 119.4 29.9 121.5 Q 32.2 123.6 34.5 129.8 Q 36.8 136.0 39.1 140.9 Q 41.4 145.8 43.7 148.3 Q 46.0 150.7 48.3 151.6 Q 50.6 152.5 52.9 150.7 Q 55.2 149.0 57.5 146.3 Q 59.8 143.6 62.1 142.0 Q 64.4 140.4 66.7 140.5 Q 69.0 140.6 71.3 142.2 Q 73.6 143.8 75.9 145.4 Q 78.2 147.0 80.5 148.3 Q 82.8 149.6 85.1 150.1 Q 87.4 150.6 89.7 150.8 Q 92.1 151.0 94.4 150.9 Q 96.7 150.8 99.0 150.8 Q 101.3 150.9 103.6 150.7 Q 105.9 150.6 108.2 150.6 Q 110.5 150.6 112.8 150.6 Q 115.1 150.6 117.4 150.8 Q 119.7 151.0 122.0 150.8 Q 124.3 150.6 126.6 150.5 Q 128.9 150.4 131.2 150.4 Q 133.5 150.4 135.8 150.5 Q 138.1 150.6 140.4 150.5 Q 142.7 150.4 145.0 150.4 Q 147.3 150.5 149.6 150.4 Q 151.9 150.4 154.2 150.2 Q 156.5 150.0 158.8 150.1 Q 161.1 150.3 163.4 149.9 Q 165.7 149.5 168.0 148.1 Q 170.3 146.7 172.6 143.2 Q 174.9 139.6 177.2 133.5 Q 179.5 127.4 181.8 122.9 Q 184.1 118.3 186.4 119.7 Q 188.7 121.1 191.0 127.0 Q 193.3 132.9 195.6 138.1 Q 197.9 143.3 200.2 146.0 Q 202.5 148.7 204.8 150.2 Q 207.1 151.6 209.4 150.1 Q 211.7 148.5 214.0 145.7 Q 216.3 143.0 218.6 141.3 Q 220.9 139.7 223.2 139.4 Q 225.5 139.1 227.8 140.6 Q 230.1 142.0 232.4 143.9 Q 234.7 145.9 237.0 147.0 Q 239.3 148.2 241.6 148.8 Q 243.9 149.4 246.2 149.7 Q 248.5 150.0 250.8 150.0 Q 253.1 150.0 255.4 150.1 Q 257.7 150.2 260.0 150.1 Q 262.3 150.1 264.6 150.0 Q 266.9 149.9 269.2 150.2 Q 271.5 150.4 273.8 150.3 Q 276.2 150.2 278.5 150.3 Q 280.8 150.4 283.1 150.4 Q 285.4 150.3 287.7 150.5 Q 290.0 150.6 292.3 150.6 Q 294.6 150.5 296.9 150.5 Q 299.2 150.5 301.5 150.4 Q 303.8 150.3 306.1 150.3 Q 308.4 150.3 310.7 150.6 Q 313.0 150.8 315.3 150.8 Q 317.6 150.7 319.9 150.4 Q 322.2 150.1 324.5 149.2 Q 326.8 148.4 329.1 145.0 Q 331.4 141.6 333.7 135.8 Q 336.0 129.9 338.3 124.8 Q 340.6 119.6 342.9 120.1 Q 345.2 120.6 347.5 126.3 Q 349.8 131.9 352.1 137.5 Q 354.4 143.1 356.7 146.3 Q 359.0 149.5 361.3 150.8 Q 363.6 152.1 365.9 151.3 Q 368.2 150.6 370.5 147.8 Q 372.8 145.0 375.1 143.0 Q 377.4 141.0 379.7 140.9 Q 382.0 140.7 384.3 141.9 Q 386.6 143.1 388.9 145.0 Q 391.2 146.8 393.5 148.1 Q 395.8 149.4 398.1 150.2 Q 400.4 151.0 402.7 151.2 Q 405.0 151.3 407.3 151.5 Q 409.6 151.6 411.9 151.8 Q 414.2 151.9 416.5 151.8 Q 418.8 151.8 421.1 151.9 Q 423.4 152.1 425.7 152.0 Q 428.0 151.9 430.3 152.0 Q 432.6 152.1 434.9 152.1 Q 437.2 152.1 439.5 152.3 Q 441.8 152.5 444.1 152.4 Q 446.4 152.3 448.7 152.5 Q 451.0 152.7 453.3 152.8 Q 455.6 152.9 457.9 152.7 Q 460.3 152.6 462.6 152.7 Q 464.9 152.8 467.2 152.7 Q 469.5 152.6 471.8 152.4 Q 474.1 152.2 476.4 152.4 Q 478.7 152.6 481.0 151.7 Q 483.3 150.8 485.6 147.9 Q 487.9 144.9 490.2 139.3 Q 492.5 133.8 494.8 128.3 Q 497.1 122.9 499.4 122.5 Q 501.7 122.0 504.0 127.0 Q 506.3 132.0 508.6 137.9 Q 510.9 143.8 513.2 147.4 Q 515.5 151.1 517.8 152.7 Q 520.1 154.3 522.4 153.8 Q 524.7 153.2 527.0 150.6 Q 529.3 148.1 531.6 145.8 Q 533.9 143.5 536.2 143.1 Q 538.5 142.7 540.8 143.6 Q 543.1 144.5 545.4 146.3 Q 547.7 148.1 550.0 149.6 Q 552.3 151.1 554.6 152.0 Q 556.9 152.9 559.2 153.2 Q 561.5 153.5 563.8 153.7 Q 566.1 154.0 568.4 154.0 Q 570.7 153.9 573.0 153.8 Q 575.3 153.7 577.6 153.9 Q 579.9 154.2 582.2 153.9 Q 584.5 153.6 586.8 153.9 Q 589.1 154.2 591.4 153.9 Q 593.7 153.7 596.0 153.9 Q 598.3 154.0 600.6 153.9 Q 602.9 153.7 605.2 153.8 Q 607.5 153.9 609.8 154.0 Q 612.1 154.2 614.4 153.9 Q 616.7 153.7 619.0 153.7 Q 621.3 153.6 623.6 153.8 Q 625.9 153.9 628.2 154.0 Q 630.5 154.0 632.8 153.8 Q 635.1 153.7 637.4 153.0 Q 639.7 152.4 642.1 149.7 Q 644.4 147.0 646.7 141.8 Q 649.0 136.7 651.3 130.8 Q 653.6 125.0 655.9 123.6 Q 658.2 122.3 660.5 126.8 Q 662.8 131.2 665.1 137.3 Q 667.4 143.4 669.7 147.0 Q 672.0 150.6 674.3 152.6 Q 676.6 154.6 678.9 154.3 Q 681.2 154.1 683.5 151.6 Q 685.8 149.1 688.1 146.8 Q 690.4 144.4 692.7 143.7 Q 695.0 142.9 697.3 143.7 Q 699.6 144.5 701.9 146.2 Q 704.2 147.8 706.5 149.3 Q 708.8 150.9 711.1 151.8 Q 713.4 152.6 715.7 153.1 Q 718.0 153.6 720.3 153.6 Q 722.6 153.6 724.9 153.4 Q 727.2 153.2 729.5 153.4 Q 731.8 153.6 734.1 153.6 Q 736.4 153.6 738.7 153.5 Q 741.0 153.3 743.3 153.2 Q 745.6 153.0 747.9 153.3 Q 750.2 153.5 752.5 153.4 Q 754.8 153.3 757.1 153.3 Q 759.4 153.3 761.7 153.4 Q 764.0 153.5 766.3 153.2 Q 768.6 152.9 770.9 153.0 Q 773.2 153.0 775.5 153.0 Q 777.8 152.9 780.1 153.0 Q 782.4 153.0 784.7 152.9 Q 787.0 152.7 789.3 152.7 Q 791.6 152.7 793.9 152.0 Q 796.2 151.4 798.5 149.2 Q 800.8 147.1 803.1 142.2 Q 805.4 137.3 807.7 131.0 Q 810.0 124.6 812.3 122.5 Q 814.6 120.4 816.9 124.1 Q 819.2 127.8 821.5 133.9 Q 823.8 140.1 826.2 144.3 Q 828.5 148.5 830.8 150.6 Q 833.1 152.7 835.4 152.7 Q 837.7 152.8 840.0 150.5 Q 842.3 148.3 844.6 145.7 Q 846.9 143.1 849.2 142.0 Q 851.5 141.0 853.8 141.5 Q 856.1 142.0 858.4 143.6 Q 860.7 145.2 863.0 146.8 Q 865.3 148.4 867.6 149.5 Q 869.9 150.6 872.2 151.0 Q 874.5 151.5 876.8 151.4 Q 879.1 151.3 881.4 151.3 Q 883.7 151.3 886.0 151.3 Q 888.3 151.4 890.6 151.3 Q 892.9 151.2 895.2 151.2 Q 897.5 151.1 899.8 151.1 Q 902.1 151.1 904.4 151.0 Q 906.7 151.0 909.0 151.1 Q 911.3 151.2 913.6 151.0 Q 915.9 150.7 918.2 151.0 Q 920.5 151.2 922.8 151.0 Q 925.1 150.8 927.4 150.8 Q 929.7 150.8 932.0 150.7 Q 934.3 150.7 936.6 150.5 Q 938.9 150.4 941.2 150.4 Q 943.5 150.4 945.8 150.6 Q 948.1 150.7 950.4 150.3 Q 952.7 149.9 955.0 147.7 Q 957.3 145.6 959.6 141.3 Q 961.9 136.9 964.2 130.7 Q 966.5 124.4 968.8 121.2 Q 971.1 118.0 973.4 121.3 Q 975.7 124.6 978.0 130.7 Q 980.3 136.9 982.6 141.2 Q 984.9 145.6 987.2 147.9 Q 989.5 150.2 991.8 150.8 Q 994.1 151.4 996.4 149.3 Q 998.7 147.2 1001.0 144.6 Q 1003.3 142.0 1005.6 140.8 Q 1007.9 139.6 1010.3 139.9 Q 1012.6 140.2 1014.9 141.8 Q 1017.2 143.4 1019.5 145.1 Q 1021.8 146.8 1024.1 147.7 Q 1026.4 148.6 1028.7 149.1 Q 1031.0 149.7 1033.3 149.8 Q 1035.6 149.9 1037.9 150.1 Q 1040.2 150.3 1042.5 150.2 Q 1044.8 150.2 1047.1 150.2 Q 1049.4 150.3 1051.7 150.2 Q 1054.0 150.2 1056.3 150.1 Q 1058.6 150.0 1060.9 150.1 Q 1063.2 150.2 1065.5 150.1 Q 1067.8 150.0 1070.1 150.0 Q 1072.4 150.0 1074.7 149.8 Q 1077.0 149.7 1079.3 150.0 Q 1081.6 150.4 1083.9 150.1 Q 1086.2 149.9 1088.5 150.0 Q 1090.8 150.1 1093.1 150.1 Q 1095.4 150.1 1097.7 150.3 T 1100.0 150.4"/>
      <animate attributeName="r" values="3;5;3" dur="1s" repeatCount="indefinite"/>
    </circle>
    <rect width="1100" height="190" fill="url(#fd)"/>
    <!-- No fade-in on the text. Anything that snapshots the SVG at t=0 (social
         card previews, link unfurls, some markdown renderers) would capture an
         invisible title. The travelling trace carries the motion instead. -->
    <g font-family="-apple-system, BlinkMacSystemFont, 'Segoe UI', Helvetica, Arial, sans-serif">
    <text x="550" y="72" text-anchor="middle" fill="#F8F9FA" font-size="40" font-weight="700" letter-spacing="-0.5">obsidian-icloud-mcp</text>
    <text x="550" y="100" text-anchor="middle" fill="#9CA3AF" font-size="13" font-weight="500" letter-spacing="3.5">AN OBSIDIAN MCP THAT SURVIVES iCLOUD EVICTION</text>
  </g>
  </g>
</svg>